<?xml version="1.0" encoding="iso-8859-1"?>
<!-- Generator: Adobe Illustrator 19.0.0, SVG Export Plug-In . SVG Version: 6.00 Build 0)  -->
<svg version="1.1" id="Capa_1" xmlns="http://www.w3.org/2000/svg" xmlns:xlink="http://www.w3.org/1999/xlink" x="0px" y="0px"
	 viewBox="0 0 512 512" style="enable-background:new 0 0 512 512;" xml:space="preserve">
<path style="fill:#455A64;" d="M458.667,0H53.333C23.878,0,0,23.878,0,53.333v192C0,251.224,4.776,256,10.667,256h490.667
	c5.891,0,10.667-4.776,10.667-10.667v-192C512,23.878,488.122,0,458.667,0z"/>
<path style="fill:#607D8B;" d="M512,234.667H0v224C0,488.122,23.878,512,53.333,512h405.333C488.122,512,512,488.122,512,458.667
	V234.667z"/>
<path style="fill:#4CAF50;" d="M74.667,298.667h170.667c5.891,0,10.667,4.776,10.667,10.667v149.333
	c0,5.891-4.776,10.667-10.667,10.667H74.667c-5.891,0-10.667-4.776-10.667-10.667V309.333C64,303.442,68.776,298.667,74.667,298.667
	z"/>
<path style="fill:#C8E6C9;" d="M206.933,342.251c-3.852-1.687-8.333-0.979-11.477,1.813C186.1,354.12,173.592,360.683,160,362.667
	c-13.622-1.965-26.163-8.529-35.541-18.603c-4.384-3.935-11.128-3.572-15.063,0.812c-1.757,1.957-2.729,4.494-2.729,7.124v64
	c0,5.891,4.776,10.667,10.667,10.667h85.333c5.891,0,10.667-4.776,10.667-10.667v-64
	C213.323,347.768,210.812,343.943,206.933,342.251z"/>
<path style="fill:#455A64;" d="M266.667,320H53.333c-5.891,0-10.667-4.776-10.667-10.667s4.776-10.667,10.667-10.667h213.333
	c5.891,0,10.667,4.776,10.667,10.667S272.558,320,266.667,320z"/>
<g>
	<path style="fill:#90A4AE;" d="M330.667,384h-21.333c-5.891,0-10.667-4.776-10.667-10.667s4.776-10.667,10.667-10.667h21.333
		c5.891,0,10.667,4.776,10.667,10.667S336.558,384,330.667,384z"/>
	<path style="fill:#90A4AE;" d="M394.667,384h-21.333c-5.891,0-10.667-4.776-10.667-10.667s4.776-10.667,10.667-10.667h21.333
		c5.891,0,10.667,4.776,10.667,10.667S400.558,384,394.667,384z"/>
	<path style="fill:#90A4AE;" d="M330.667,426.667h-21.333c-5.891,0-10.667-4.776-10.667-10.667c0-5.891,4.776-10.667,10.667-10.667
		h21.333c5.891,0,10.667,4.776,10.667,10.667C341.333,421.891,336.558,426.667,330.667,426.667z"/>
	<path style="fill:#90A4AE;" d="M394.667,426.667h-21.333c-5.891,0-10.667-4.776-10.667-10.667c0-5.891,4.776-10.667,10.667-10.667
		h21.333c5.891,0,10.667,4.776,10.667,10.667C405.333,421.891,400.558,426.667,394.667,426.667z"/>
	<path style="fill:#90A4AE;" d="M330.667,469.333h-21.333c-5.891,0-10.667-4.776-10.667-10.667c0-5.891,4.776-10.667,10.667-10.667
		h21.333c5.891,0,10.667,4.776,10.667,10.667C341.333,464.558,336.558,469.333,330.667,469.333z"/>
	<path style="fill:#90A4AE;" d="M394.667,469.333h-21.333c-5.891,0-10.667-4.776-10.667-10.667c0-5.891,4.776-10.667,10.667-10.667
		h21.333c5.891,0,10.667,4.776,10.667,10.667C405.333,464.558,400.558,469.333,394.667,469.333z"/>
	<path style="fill:#90A4AE;" d="M458.667,384h-21.333c-5.891,0-10.667-4.776-10.667-10.667s4.776-10.667,10.667-10.667h21.333
		c5.891,0,10.667,4.776,10.667,10.667S464.558,384,458.667,384z"/>
	<path style="fill:#90A4AE;" d="M458.667,426.667h-21.333c-5.891,0-10.667-4.776-10.667-10.667c0-5.891,4.776-10.667,10.667-10.667
		h21.333c5.891,0,10.667,4.776,10.667,10.667C469.333,421.891,464.558,426.667,458.667,426.667z"/>
	<path style="fill:#90A4AE;" d="M458.667,469.333h-21.333c-5.891,0-10.667-4.776-10.667-10.667c0-5.891,4.776-10.667,10.667-10.667
		h21.333c5.891,0,10.667,4.776,10.667,10.667C469.333,464.558,464.558,469.333,458.667,469.333z"/>
</g>
<g>
	<path style="fill:#FAFAFA;" d="M458.667,298.667h-44.629c-5.779-16.589-23.913-25.352-40.502-19.573
		c-9.17,3.195-16.378,10.403-19.573,19.573h-44.629c-5.891,0-10.667,4.776-10.667,10.667S303.442,320,309.333,320h44.629
		c5.779,16.589,23.913,25.352,40.502,19.573c9.17-3.195,16.378-10.403,19.573-19.573h44.629c5.891,0,10.667-4.776,10.667-10.667
		S464.558,298.667,458.667,298.667z"/>
	<path style="fill:#FAFAFA;" d="M160,192c-4.358-0.001-8.277-2.653-9.899-6.699l-32.768-81.92l-32.768,81.92
		c-2.186,5.473-8.394,8.138-13.867,5.952c-5.473-2.186-8.138-8.394-5.952-13.867l0,0L107.413,70.72
		c2.78-5.473,9.471-7.656,14.943-4.875c2.101,1.067,3.808,2.775,4.875,4.875l42.667,106.667c2.187,5.47-0.475,11.677-5.945,13.864
		c-0.002,0.001-0.005,0.002-0.007,0.003C162.69,191.75,161.351,192.003,160,192z"/>
	<path style="fill:#FAFAFA;" d="M149.333,170.667h-64c-5.891,0-10.667-4.776-10.667-10.667c0-5.891,4.776-10.667,10.667-10.667h64
		c5.891,0,10.667,4.776,10.667,10.667C160,165.891,155.224,170.667,149.333,170.667z"/>
	<path style="fill:#FAFAFA;" d="M288,85.333h-85.333c-5.891,0-10.667-4.776-10.667-10.667S196.776,64,202.667,64H288
		c5.891,0,10.667,4.776,10.667,10.667S293.891,85.333,288,85.333z"/>
	<path style="fill:#FAFAFA;" d="M245.333,192c-5.891,0-10.667-4.776-10.667-10.667V74.667c0-5.891,4.776-10.667,10.667-10.667
		C251.224,64,256,68.776,256,74.667v106.667C256,187.224,251.224,192,245.333,192z"/>
	<path style="fill:#FAFAFA;" d="M437.333,192c-5.891,0-10.667-4.776-10.667-10.667v-71.445l-23.125,34.688
		c-3.656,4.901-10.594,5.911-15.495,2.254c-0.856-0.639-1.616-1.398-2.254-2.254l-23.125-34.688v71.445
		c0,5.891-4.776,10.667-10.667,10.667c-5.891,0-10.667-4.776-10.667-10.667V74.667c0.005-5.891,4.784-10.663,10.675-10.658
		c3.563,0.003,6.89,1.785,8.866,4.749l33.792,50.709l33.792-50.688c3.268-4.901,9.891-6.225,14.792-2.957
		c2.958,1.973,4.739,5.29,4.749,8.845v106.667C448,187.224,443.224,192,437.333,192z"/>
</g>
<g>
</g>
<g>
</g>
<g>
</g>
<g>
</g>
<g>
</g>
<g>
</g>
<g>
</g>
<g>
</g>
<g>
</g>
<g>
</g>
<g>
</g>
<g>
</g>
<g>
</g>
<g>
</g>
<g>
</g>
</svg>
