<svg height="512" viewBox="0 0 512 512" width="512" xmlns="http://www.w3.org/2000/svg"><g id="Flat"><rect fill="#2f486e" height="464" rx="16" width="288" x="112" y="24"/><rect fill="#34507b" height="144" rx="16" width="288" x="112" y="24"/><path d="m144 200h224v256h-224z" fill="#348ed8"/><path d="m168 224h16v16h-16z" fill="#4db6e4"/><path d="m200 224h16v16h-16z" fill="#4db6e4"/><path d="m232 224h16v16h-16z" fill="#4db6e4"/><path d="m264 224h80v16h-80z" fill="#5dacef"/><path d="m168 288h16v16h-16z" fill="#4db6e4"/><path d="m200 288h16v16h-16z" fill="#4db6e4"/><path d="m232 288h16v16h-16z" fill="#4db6e4"/><path d="m264 288h80v16h-80z" fill="#5dacef"/><path d="m168 352h16v16h-16z" fill="#4db6e4"/><path d="m200 352h16v16h-16z" fill="#4db6e4"/><path d="m232 352h16v16h-16z" fill="#4db6e4"/><path d="m264 352h80v16h-80z" fill="#5dacef"/><path d="m168 416h16v16h-16z" fill="#4db6e4"/><path d="m200 416h16v16h-16z" fill="#4db6e4"/><path d="m232 416h16v16h-16z" fill="#4db6e4"/><path d="m264 416h80v16h-80z" fill="#5dacef"/><g fill="#2c86d1"><path d="m264 240h80v16h-80z"/><path d="m264 304h80v16h-80z"/><path d="m264 368h80v16h-80z"/><path d="m264 432h80v16h-80z"/></g><path d="m136 48h16v16h-16z" fill="#415e89"/><path d="m136 80h16v64h-16z" fill="#415e89"/><path d="m144 200h224v16h-224z" fill="#2c86d1"/><path d="m144 200h16v256h-16z" fill="#2c86d1"/><path d="m144 256h224v16h-224z" fill="#2d7dbe"/><path d="m144 320h224v16h-224z" fill="#2d7dbe"/><path d="m144 384h224v16h-224z" fill="#2d7dbe"/></g></svg>