<?xml version="1.0" encoding="UTF-8" standalone="no"?>
<svg
   xmlns:dc="http://purl.org/dc/elements/1.1/"
   xmlns:cc="http://creativecommons.org/ns#"
   xmlns:rdf="http://www.w3.org/1999/02/22-rdf-syntax-ns#"
   xmlns:svg="http://www.w3.org/2000/svg"
   xmlns="http://www.w3.org/2000/svg"
   xmlns:sodipodi="http://sodipodi.sourceforge.net/DTD/sodipodi-0.dtd"
   xmlns:inkscape="http://www.inkscape.org/namespaces/inkscape"
   version="1.1"
   id="svg2"
   xml:space="preserve"
   width="42"
   height="33.613335"
   viewBox="0 0 42 33.613335"
   sodipodi:docname="relational database.eps"><metadata
     id="metadata8"><rdf:RDF><cc:Work
         rdf:about=""><dc:format>image/svg+xml</dc:format><dc:type
           rdf:resource="http://purl.org/dc/dcmitype/StillImage" /></cc:Work></rdf:RDF></metadata><defs
     id="defs6"><clipPath
       clipPathUnits="userSpaceOnUse"
       id="clipPath20"><path
         d="M 0,2 V 252 H 310 V 2 Z"
         id="path18" /></clipPath></defs><sodipodi:namedview
     pagecolor="#ffffff"
     bordercolor="#666666"
     borderopacity="1"
     objecttolerance="10"
     gridtolerance="10"
     guidetolerance="10"
     inkscape:pageopacity="0"
     inkscape:pageshadow="2"
     inkscape:window-width="640"
     inkscape:window-height="480"
     id="namedview4" /><g
     id="g10"
     inkscape:groupmode="layer"
     inkscape:label="ink_ext_XXXXXX"
     transform="matrix(1.3333333,0,0,-1.3333333,0,33.613333)"><g
       id="g12"
       transform="scale(0.1)"><g
         id="g14"><g
           id="g16"
           clip-path="url(#clipPath20)"><path
             d="m 313.215,192.426 c 0,-31.824 -69.668,-57.629 -155.61,-57.629 C 71.668,134.797 2,160.602 2,192.426 V 59.625 C 2,27.7969 71.668,1.99219 157.605,1.99219 c 85.942,0 155.61,25.80471 155.61,57.63281 v 132.801"
             style="fill:#026c9b;fill-opacity:1;fill-rule:nonzero;stroke:none"
             id="path22" /><path
             d="m 313.215,192.426 c 0,-31.824 -69.668,-57.629 -155.61,-57.629 C 71.668,134.797 2,160.602 2,192.426 V 59.625 C 2,27.7969 71.668,1.99219 157.605,1.99219 c 85.942,0 155.61,25.80471 155.61,57.63281 z"
             style="fill:none;stroke:#ffffff;stroke-width:4;stroke-linecap:butt;stroke-linejoin:miter;stroke-miterlimit:4;stroke-dasharray:none;stroke-opacity:1"
             id="path24" /><path
             d="m 157.605,134.797 c 85.942,0 155.61,25.805 155.61,57.629 0,31.832 -69.668,57.633 -155.61,57.633 C 71.668,250.059 2,224.258 2,192.426 2,160.602 71.668,134.797 157.605,134.797"
             style="fill:#026c9b;fill-opacity:1;fill-rule:nonzero;stroke:none"
             id="path26" /><path
             d="m 157.605,134.797 c 85.942,0 155.61,25.805 155.61,57.629 0,31.832 -69.668,57.633 -155.61,57.633 C 71.668,250.059 2,224.258 2,192.426 2,160.602 71.668,134.797 157.605,134.797 Z"
             style="fill:none;stroke:#ffffff;stroke-width:4;stroke-linecap:butt;stroke-linejoin:miter;stroke-miterlimit:4;stroke-dasharray:none;stroke-opacity:1"
             id="path28" /></g></g></g></g></svg>
