<?xml version="1.0" encoding="UTF-8" standalone="no"?>
<svg
   xmlns:dc="http://purl.org/dc/elements/1.1/"
   xmlns:cc="http://creativecommons.org/ns#"
   xmlns:rdf="http://www.w3.org/1999/02/22-rdf-syntax-ns#"
   xmlns:svg="http://www.w3.org/2000/svg"
   xmlns="http://www.w3.org/2000/svg"
   xmlns:sodipodi="http://sodipodi.sourceforge.net/DTD/sodipodi-0.dtd"
   xmlns:inkscape="http://www.inkscape.org/namespaces/inkscape"
   version="1.1"
   id="svg2"
   xml:space="preserve"
   width="50.360001"
   height="45.253334"
   viewBox="0 0 50.360001 45.253334"
   sodipodi:docname="pc.eps"><metadata
     id="metadata8"><rdf:RDF><cc:Work
         rdf:about=""><dc:format>image/svg+xml</dc:format><dc:type
           rdf:resource="http://purl.org/dc/dcmitype/StillImage" /></cc:Work></rdf:RDF></metadata><defs
     id="defs6" /><sodipodi:namedview
     pagecolor="#ffffff"
     bordercolor="#666666"
     borderopacity="1"
     objecttolerance="10"
     gridtolerance="10"
     guidetolerance="10"
     inkscape:pageopacity="0"
     inkscape:pageshadow="2"
     inkscape:window-width="640"
     inkscape:window-height="480"
     id="namedview4" /><g
     id="g10"
     inkscape:groupmode="layer"
     inkscape:label="ink_ext_XXXXXX"
     transform="matrix(1.3333333,0,0,-1.3333333,0,45.253333)"><g
       id="g12"
       transform="scale(0.1)"><path
         d="m 5.03516,52.9492 h 314.734 v 59.0625 H 5.03516 Z"
         style="fill:#02709f;fill-opacity:1;fill-rule:nonzero;stroke:none"
         id="path14" /><path
         d="M 319.77,52.9492 V 112.012 H 5.03516 V 52.9492 Z"
         style="fill:none;stroke:#ffffff;stroke-width:3.99994;stroke-linecap:butt;stroke-linejoin:miter;stroke-miterlimit:4;stroke-dasharray:none;stroke-opacity:1"
         id="path16" /><path
         d="m 223.375,78.5742 h 79.383"
         style="fill:#02709f;fill-opacity:1;fill-rule:nonzero;stroke:none"
         id="path18" /><path
         d="m 223.375,78.5742 h 79.383"
         style="fill:none;stroke:#ffffff;stroke-width:3.99994;stroke-linecap:butt;stroke-linejoin:miter;stroke-miterlimit:4;stroke-dasharray:none;stroke-opacity:1"
         id="path20" /><path
         d="m 223.375,81.4063 h 79.383"
         style="fill:#02709f;fill-opacity:1;fill-rule:nonzero;stroke:none"
         id="path22" /><path
         d="m 223.375,81.4063 h 79.383"
         style="fill:none;stroke:#ffffff;stroke-width:3.99994;stroke-linecap:butt;stroke-linejoin:miter;stroke-miterlimit:4;stroke-dasharray:none;stroke-opacity:1"
         id="path24" /><path
         d="m 372.613,108.945 v 52.84 L 319.73,111.777 V 52.9492 l 52.883,55.9958"
         style="fill:#02709f;fill-opacity:1;fill-rule:nonzero;stroke:none"
         id="path26" /><path
         d="m 372.613,108.945 v 52.84 L 319.73,111.777 V 52.9492 Z"
         style="fill:none;stroke:#ffffff;stroke-width:3.99994;stroke-linecap:butt;stroke-linejoin:miter;stroke-miterlimit:4;stroke-dasharray:none;stroke-opacity:1"
         id="path28" /><path
         d="M 263.871,4.82422 V 17.9102 l 28.594,39.7265 V 33.418 L 263.871,4.82422"
         style="fill:#02709f;fill-opacity:1;fill-rule:nonzero;stroke:none"
         id="path30" /><path
         d="M 263.871,4.82422 V 17.9102 l 28.594,39.7265 V 33.418 Z"
         style="fill:none;stroke:#ffffff;stroke-width:3.99994;stroke-linecap:butt;stroke-linejoin:miter;stroke-miterlimit:4;stroke-dasharray:none;stroke-opacity:1"
         id="path32" /><path
         d="m 12.0078,4.82422 h 251.863 v 13.0859 H 12.0078 Z"
         style="fill:#02709f;fill-opacity:1;fill-rule:nonzero;stroke:none"
         id="path34" /><path
         d="M 263.871,17.9102 V 4.82422 H 12.0078 V 17.9102 Z"
         style="fill:none;stroke:#ffffff;stroke-width:3.99994;stroke-linecap:butt;stroke-linejoin:miter;stroke-miterlimit:4;stroke-dasharray:none;stroke-opacity:1"
         id="path36" /><path
         d="M 263.871,17.9102 H 12.0078 L 41.1484,57.6367 H 292.465 L 263.871,17.9102"
         style="fill:#02709f;fill-opacity:1;fill-rule:nonzero;stroke:none"
         id="path38" /><path
         d="M 263.871,17.9102 H 12.0078 L 41.1484,57.6367 H 292.465 Z"
         style="fill:none;stroke:#ffffff;stroke-width:3.99994;stroke-linecap:butt;stroke-linejoin:miter;stroke-miterlimit:4;stroke-dasharray:none;stroke-opacity:1"
         id="path40" /><path
         d="M 372.613,161.785 H 57.7773 L 5.03516,112.012 H 319.77 l 52.843,49.773"
         style="fill:#02709f;fill-opacity:1;fill-rule:nonzero;stroke:none"
         id="path42" /><path
         d="M 372.613,161.785 H 57.7773 L 5.03516,112.012 H 319.77 Z"
         style="fill:none;stroke:#ffffff;stroke-width:3.99994;stroke-linecap:butt;stroke-linejoin:miter;stroke-miterlimit:4;stroke-dasharray:none;stroke-opacity:1"
         id="path44" /><path
         d="M 61.332,141.191 H 278.336 V 300.39 H 61.332 Z"
         style="fill:#02709f;fill-opacity:1;fill-rule:nonzero;stroke:none"
         id="path46" /><path
         d="m 278.336,141.191 v 159.2 H 61.332 v -159.2 z"
         style="fill:none;stroke:#ffffff;stroke-width:3.99994;stroke-linecap:butt;stroke-linejoin:miter;stroke-miterlimit:4;stroke-dasharray:none;stroke-opacity:1"
         id="path48" /><path
         d="m 79.6641,265.449 c 0,15.969 16.5507,18.332 16.5507,18.332 0,0 127.7262,0 143.0982,0 20.105,0 19.511,-18.918 19.511,-18.918 0,0 0,-78.054 0,-89.297 0,-11.23 -15.371,-15.957 -15.371,-15.957 0,0 -130.676,0 -144.8749,0 -14.1875,0 -18.914,14.786 -18.914,14.786 v 91.054"
         style="fill:#02709f;fill-opacity:1;fill-rule:nonzero;stroke:none"
         id="path50" /><path
         d="m 79.6641,265.449 c 0,15.969 16.5507,18.332 16.5507,18.332 0,0 127.7262,0 143.0982,0 20.105,0 19.511,-18.918 19.511,-18.918 0,0 0,-78.054 0,-89.297 0,-11.23 -15.371,-15.957 -15.371,-15.957 0,0 -130.676,0 -144.8749,0 -14.1875,0 -18.914,14.786 -18.914,14.786 z"
         style="fill:none;stroke:#ffffff;stroke-width:3.99994;stroke-linecap:butt;stroke-linejoin:miter;stroke-miterlimit:4;stroke-dasharray:none;stroke-opacity:1"
         id="path52" /><path
         d="M 314.703,334.629 H 97.6914 L 61.332,300.391 h 217.004 l 36.367,34.238"
         style="fill:#02709f;fill-opacity:1;fill-rule:nonzero;stroke:none"
         id="path54" /><path
         d="M 314.703,334.629 H 97.6914 L 61.332,300.391 h 217.004 z"
         style="fill:none;stroke:#ffffff;stroke-width:3.99994;stroke-linecap:butt;stroke-linejoin:miter;stroke-miterlimit:4;stroke-dasharray:none;stroke-opacity:1"
         id="path56" /><path
         d="m 314.711,175.078 v 159.629 l -36.016,-34.316 v -159.2 l 36.016,33.887"
         style="fill:#02709f;fill-opacity:1;fill-rule:nonzero;stroke:none"
         id="path58" /><path
         d="m 314.711,175.078 v 159.629 l -36.016,-34.316 v -159.2 z"
         style="fill:none;stroke:#ffffff;stroke-width:3.99994;stroke-linecap:butt;stroke-linejoin:miter;stroke-miterlimit:4;stroke-dasharray:none;stroke-opacity:1"
         id="path60" /></g></g></svg>
