<?xml version="1.0" encoding="UTF-8" standalone="no"?>
<svg
   xmlns:dc="http://purl.org/dc/elements/1.1/"
   xmlns:cc="http://creativecommons.org/ns#"
   xmlns:rdf="http://www.w3.org/1999/02/22-rdf-syntax-ns#"
   xmlns:svg="http://www.w3.org/2000/svg"
   xmlns="http://www.w3.org/2000/svg"
   xmlns:sodipodi="http://sodipodi.sourceforge.net/DTD/sodipodi-0.dtd"
   xmlns:inkscape="http://www.inkscape.org/namespaces/inkscape"
   version="1.1"
   id="svg2"
   xml:space="preserve"
   width="51.066666"
   height="33.986668"
   viewBox="0 0 51.066666 33.986668"
   sodipodi:docname="ups.eps"><metadata
     id="metadata8"><rdf:RDF><cc:Work
         rdf:about=""><dc:format>image/svg+xml</dc:format><dc:type
           rdf:resource="http://purl.org/dc/dcmitype/StillImage" /></cc:Work></rdf:RDF></metadata><defs
     id="defs6"><clipPath
       clipPathUnits="userSpaceOnUse"
       id="clipPath20"><path
         d="m 0,4.92188 h 380 v 250 H 0 Z"
         id="path18" /></clipPath></defs><sodipodi:namedview
     pagecolor="#ffffff"
     bordercolor="#666666"
     borderopacity="1"
     objecttolerance="10"
     gridtolerance="10"
     guidetolerance="10"
     inkscape:pageopacity="0"
     inkscape:pageshadow="2"
     inkscape:window-width="640"
     inkscape:window-height="480"
     id="namedview4" /><g
     id="g10"
     inkscape:groupmode="layer"
     inkscape:label="ink_ext_XXXXXX"
     transform="matrix(1.3333333,0,0,-1.3333333,0,33.986667)"><g
       id="g12"
       transform="scale(0.1)"><g
         id="g14"><g
           id="g16"
           clip-path="url(#clipPath20)"><path
             d="m 5.65625,6.46484 h 333.156 v 194.512 H 5.65625 Z"
             style="fill:#036998;fill-opacity:1;fill-rule:nonzero;stroke:none"
             id="path22" /><path
             d="M 5.65625,6.46484 H 338.813 V 200.977 H 5.65625 Z"
             style="fill:none;stroke:#ffffff;stroke-width:3.99994;stroke-linecap:butt;stroke-linejoin:miter;stroke-miterlimit:4;stroke-dasharray:none;stroke-opacity:1"
             id="path24" /><path
             d="M 378.715,64.8242 338.813,6.46484 V 200.977 l 39.902,48.378 V 64.8242"
             style="fill:#036998;fill-opacity:1;fill-rule:nonzero;stroke:none"
             id="path26" /><path
             d="M 378.715,64.8242 338.813,6.46484 V 200.977 l 39.902,48.378 z"
             style="fill:none;stroke:#ffffff;stroke-width:3.99994;stroke-linecap:butt;stroke-linejoin:miter;stroke-miterlimit:4;stroke-dasharray:none;stroke-opacity:1"
             id="path28" /><path
             d="M 65.5078,249.355 H 378.715 L 338.813,200.977 H 5.65625 l 59.85155,48.378"
             style="fill:#036998;fill-opacity:1;fill-rule:nonzero;stroke:none"
             id="path30" /><path
             d="M 65.5078,249.355 H 378.715 L 338.813,200.977 H 5.65625 Z"
             style="fill:none;stroke:#ffffff;stroke-width:3.99994;stroke-linecap:butt;stroke-linejoin:miter;stroke-miterlimit:4;stroke-dasharray:none;stroke-opacity:1"
             id="path32" /><g
             id="g34"
             transform="scale(10)"><text
               transform="matrix(1,0,0,-1,10.0867,12.4727)"
               style="font-variant:normal;font-weight:bold;font-size:7px;font-family:Helvetica;-inkscape-font-specification:Helvetica-Bold;writing-mode:lr-tb;fill:#ffffff;fill-opacity:1;fill-rule:nonzero;stroke:none"
               id="text38"><tspan
                 x="0 5.0539999 9.7229996"
                 y="0"
                 sodipodi:role="line"
                 id="tspan36">UPS</tspan></text></g><path
             d="m 170.23,64.707 c 0.04,0.0196 43.243,2.3633 43.243,2.3633 0,0 -53.125,20.2344 -63.145,23.7813 0.664,0.2812 48.418,0.8672 48.418,0.8672 L 54.0078,131.68 149.164,96.7188 c -0.476,-0.2032 -35,-2.5 -35,-2.5 0,0 35.149,-17.1954 44.934,-20.6641 -1.465,-0.6055 -32.02,-9.3359 -32.02,-9.3359 L 298.871,16.4258 170.23,64.707"
             style="fill:#ffffff;fill-opacity:1;fill-rule:nonzero;stroke:none"
             id="path40" /></g></g></g></g></svg>
