<?xml version="1.0" encoding="UTF-8" standalone="no"?>
<svg
   xmlns:dc="http://purl.org/dc/elements/1.1/"
   xmlns:cc="http://creativecommons.org/ns#"
   xmlns:rdf="http://www.w3.org/1999/02/22-rdf-syntax-ns#"
   xmlns:svg="http://www.w3.org/2000/svg"
   xmlns="http://www.w3.org/2000/svg"
   xmlns:sodipodi="http://sodipodi.sourceforge.net/DTD/sodipodi-0.dtd"
   xmlns:inkscape="http://www.inkscape.org/namespaces/inkscape"
   version="1.1"
   id="svg2"
   xml:space="preserve"
   width="65.066666"
   height="32.306667"
   viewBox="0 0 65.066666 32.306667"
   sodipodi:docname="layer 2 remote switch.eps"><metadata
     id="metadata8"><rdf:RDF><cc:Work
         rdf:about=""><dc:format>image/svg+xml</dc:format><dc:type
           rdf:resource="http://purl.org/dc/dcmitype/StillImage" /></cc:Work></rdf:RDF></metadata><defs
     id="defs6" /><sodipodi:namedview
     pagecolor="#ffffff"
     bordercolor="#666666"
     borderopacity="1"
     objecttolerance="10"
     gridtolerance="10"
     guidetolerance="10"
     inkscape:pageopacity="0"
     inkscape:pageshadow="2"
     inkscape:window-width="640"
     inkscape:window-height="480"
     id="namedview4" /><g
     id="g10"
     inkscape:groupmode="layer"
     inkscape:label="ink_ext_XXXXXX"
     transform="matrix(1.3333333,0,0,-1.3333333,0,32.306667)"><g
       id="g12"
       transform="scale(0.1)"><path
         d="M 5.65234,121.074 149.941,237.742 H 483.047 L 363.645,121.074 H 5.65234"
         style="fill:#087bbb;fill-opacity:1;fill-rule:nonzero;stroke:none"
         id="path14" /><path
         d="M 5.65234,121.074 149.941,237.742 H 483.047 L 363.645,121.074 Z"
         style="fill:none;stroke:#ffffff;stroke-width:4;stroke-linecap:butt;stroke-linejoin:miter;stroke-miterlimit:4;stroke-dasharray:none;stroke-opacity:1"
         id="path16" /><path
         d="m 332.91,176.105 8.867,8.883 27.754,-12.613 -48.652,-13.984 11.035,14.531 h -88.652 l 3.172,3.183 h 86.476"
         style="fill:#000000;fill-opacity:1;fill-rule:nonzero;stroke:none"
         id="path18" /><path
         d="m 279.66,205.852 -3.176,-3.176 h -90.41 l -13.691,-10.633 -23.281,11.402 53.378,15.625 -13.222,-13.218 h 90.402"
         style="fill:#000000;fill-opacity:1;fill-rule:nonzero;stroke:none"
         id="path20" /><path
         d="m 229.785,155.547 -3.183,-3.184 h -90.84 L 122.07,142.18 97.9219,153.566 152.598,168.762 140.254,155.547 h 89.531"
         style="fill:#000000;fill-opacity:1;fill-rule:nonzero;stroke:none"
         id="path22" /><path
         d="m 384.094,218.105 8.875,8.879 27.754,-12.168 -48.653,-13.988 10.586,14.106 h -89.082 l 3.176,3.171 h 87.344"
         style="fill:#000000;fill-opacity:1;fill-rule:nonzero;stroke:none"
         id="path24" /><path
         d="m 333.34,173.047 8.887,8.879 24.238,-10.422 -48.652,-13.984 12.343,12.343 h -89.082 l 3.176,3.184 h 89.09"
         style="fill:#ffffff;fill-opacity:1;fill-rule:nonzero;stroke:none"
         id="path26" /><path
         d="m 276.602,202.793 -3.184,-3.176 h -89.09 l -8.879,-8.883 -24.16,10.528 48.555,13.875 -12.344,-12.344 h 89.102"
         style="fill:#ffffff;fill-opacity:1;fill-rule:nonzero;stroke:none"
         id="path28" /><path
         d="M 363.645,5.10938 483.047,134.031 V 237.539 L 363.645,121.074 V 5.10938"
         style="fill:#087bbb;fill-opacity:1;fill-rule:nonzero;stroke:none"
         id="path30" /><path
         d="M 363.645,5.10938 483.047,134.031 V 237.539 L 363.645,121.074 Z"
         style="fill:none;stroke:#ffffff;stroke-width:4;stroke-linecap:butt;stroke-linejoin:miter;stroke-miterlimit:4;stroke-dasharray:none;stroke-opacity:1"
         id="path32" /><path
         d="m 226.289,152.488 -3.184,-3.179 h -89.089 l -8.879,-8.887 -24.16,10.523 48.554,13.879 -12.343,-12.336 h 89.101"
         style="fill:#ffffff;fill-opacity:1;fill-rule:nonzero;stroke:none"
         id="path34" /><path
         d="m 384.094,215.051 8.875,8.875 24.25,-10.418 -48.645,-13.985 12.344,12.34 h -89.102 l 3.184,3.188 h 89.094"
         style="fill:#ffffff;fill-opacity:1;fill-rule:nonzero;stroke:none"
         id="path36" /><path
         d="M 378.332,211.34 367.395,200.398"
         style="fill:none;stroke:#000000;stroke-width:2.8;stroke-linecap:round;stroke-linejoin:miter;stroke-miterlimit:4;stroke-dasharray:none;stroke-opacity:1"
         id="path38" /><path
         d="m 324.961,166.711 -6.563,-6.563"
         style="fill:none;stroke:#000000;stroke-width:1.68;stroke-linecap:round;stroke-linejoin:miter;stroke-miterlimit:4;stroke-dasharray:none;stroke-opacity:1"
         id="path40" /><path
         d="m 244.707,173.699 -3.141,-2.613"
         style="fill:none;stroke:#000000;stroke-width:1.68;stroke-linecap:round;stroke-linejoin:miter;stroke-miterlimit:4;stroke-dasharray:none;stroke-opacity:1"
         id="path42" /><path
         d="m 296.953,217.023 -4.805,-4.375"
         style="fill:none;stroke:#000000;stroke-width:2.8;stroke-linecap:round;stroke-linejoin:miter;stroke-miterlimit:4;stroke-dasharray:none;stroke-opacity:1"
         id="path44" /><path
         d="M 363.645,5.01172 V 121.074 H 6.15234 V 5.01172 H 363.645"
         style="fill:#087bbb;fill-opacity:1;fill-rule:nonzero;stroke:none"
         id="path46" /><path
         d="M 363.645,5.01172 V 121.074 H 6.15234 V 5.01172 Z"
         style="fill:none;stroke:#ffffff;stroke-width:4;stroke-linecap:butt;stroke-linejoin:miter;stroke-miterlimit:4;stroke-dasharray:none;stroke-opacity:1"
         id="path48" /><path
         d="m 101.184,77.0234 v 23.2036 h 3.945 l -5.8126,8.75 -5.8086,-8.75 h 3.9336 V 77.0234 h 3.7426"
         style="fill:#ffffff;fill-opacity:1;fill-rule:nonzero;stroke:none"
         id="path50" /><path
         d="m 89.3555,73.6836 -16.4063,16.3945 2.7813,2.7813 -10.293,2.082 2.082,-10.3008 2.7852,2.793 16.4062,-16.4102 2.6446,2.6602"
         style="fill:#ffffff;fill-opacity:1;fill-rule:nonzero;stroke:none"
         id="path52" /><path
         d="M 83.3516,62.9414 H 60.1563 v 3.9219 l -8.75,-5.7969 8.75,-5.8008 v 3.9258 h 23.1953 v 3.75"
         style="fill:#ffffff;fill-opacity:1;fill-rule:nonzero;stroke:none"
         id="path54" /><path
         d="m 86.7109,51.1055 -16.4062,-16.4102 -2.7852,2.7852 -2.082,-10.3008 10.293,2.0898 -2.7813,2.7813 16.4063,16.4062 -2.6446,2.6485"
         style="fill:#ffffff;fill-opacity:1;fill-rule:nonzero;stroke:none"
         id="path56" /><path
         d="M 97.4414,45.1094 V 21.9023 h -3.9336 l 5.8086,-8.75 5.8126,8.75 h -3.945 v 23.2071 h -3.7426"
         style="fill:#ffffff;fill-opacity:1;fill-rule:nonzero;stroke:none"
         id="path58" /><path
         d="m 111.926,71.0234 16.406,16.4102 2.77,-2.793 2.089,10.3008 -10.293,-2.082 2.778,-2.7813 -16.399,-16.3945 2.649,-2.6602"
         style="fill:#ffffff;fill-opacity:1;fill-rule:nonzero;stroke:none"
         id="path60" /><path
         d="m 113.508,41.6328 c 10.867,7.5977 13.512,22.5781 5.894,33.4336 C 111.797,85.9453 96.8281,88.5859 85.957,80.9688 75.0898,73.3672 72.4531,58.3906 80.0586,47.5273 87.668,36.6484 102.645,34.0156 113.508,41.6328"
         style="fill:#ffffff;fill-opacity:1;fill-rule:nonzero;stroke:none"
         id="path62" /><path
         d="m 111.418,48.457 16.395,-16.4062 -2.774,-2.7813 10.293,-2.0898 -2.09,10.3008 -2.773,-2.7852 -16.406,16.4102 -2.645,-2.6485"
         style="fill:#ffffff;fill-opacity:1;fill-rule:nonzero;stroke:none"
         id="path64" /><path
         d="M 113.047,60.7734 H 265.703"
         style="fill:none;stroke:#ffffff;stroke-width:10;stroke-linecap:butt;stroke-linejoin:miter;stroke-miterlimit:4;stroke-dasharray:none;stroke-opacity:1"
         id="path66" /><path
         d="M 275.781,50.5586 V 34.3164 h -2.761 l 4.07,-6.125 4.062,6.125 h -2.754 v 16.2422 h -2.617"
         style="fill:#ffffff;fill-opacity:1;fill-rule:nonzero;stroke:none"
         id="path68" /><path
         d="m 284.063,52.8984 11.484,-11.4804 -1.953,-1.9532 7.207,-1.4453 -1.453,7.2071 -1.946,-1.9532 -11.484,11.4844 -1.855,-1.8594"
         style="fill:#ffffff;fill-opacity:1;fill-rule:nonzero;stroke:none"
         id="path70" /><path
         d="m 288.262,60.4219 h 16.23 V 57.668 l 6.133,4.0625 -6.133,4.0625 v -2.7578 h -16.23 v -2.6133"
         style="fill:#ffffff;fill-opacity:1;fill-rule:nonzero;stroke:none"
         id="path72" /><path
         d="m 285.918,68.6992 11.484,11.4883 1.946,-1.9531 1.453,7.207 -7.207,-1.457 1.953,-1.9414 -11.484,-11.4844 1.855,-1.8594"
         style="fill:#ffffff;fill-opacity:1;fill-rule:nonzero;stroke:none"
         id="path74" /><path
         d="m 278.398,72.8984 v 16.2344 h 2.754 l -4.062,6.1328 -4.07,-6.1328 h 2.761 V 72.8984 h 2.617"
         style="fill:#ffffff;fill-opacity:1;fill-rule:nonzero;stroke:none"
         id="path76" /><path
         d="m 268.262,54.7578 -11.485,-11.4844 -1.941,1.9532 -1.457,-7.2071 7.199,1.4453 -1.945,1.9532 11.484,11.4804 -1.855,1.8594"
         style="fill:#ffffff;fill-opacity:1;fill-rule:nonzero;stroke:none"
         id="path78" /><path
         d="m 267.148,75.332 c -7.597,-5.3203 -9.453,-15.8086 -4.121,-23.4062 5.325,-7.6172 15.801,-9.4531 23.418,-4.1445 7.598,5.332 9.453,15.8242 4.121,23.4179 -5.32,7.6172 -15.808,9.4531 -23.418,4.1328"
         style="fill:#ffffff;fill-opacity:1;fill-rule:nonzero;stroke:none"
         id="path80" /><path
         d="m 268.613,70.5586 -11.472,11.4844 1.941,1.9414 -7.207,1.457 1.465,-7.207 1.933,1.9531 11.485,-11.4883 1.855,1.8594"
         style="fill:#ffffff;fill-opacity:1;fill-rule:nonzero;stroke:none"
         id="path82" /></g></g></svg>
