<?xml version="1.0" encoding="UTF-8" standalone="no"?>
<svg
   xmlns:dc="http://purl.org/dc/elements/1.1/"
   xmlns:cc="http://creativecommons.org/ns#"
   xmlns:rdf="http://www.w3.org/1999/02/22-rdf-syntax-ns#"
   xmlns:svg="http://www.w3.org/2000/svg"
   xmlns="http://www.w3.org/2000/svg"
   xmlns:sodipodi="http://sodipodi.sourceforge.net/DTD/sodipodi-0.dtd"
   xmlns:inkscape="http://www.inkscape.org/namespaces/inkscape"
   version="1.1"
   id="svg2"
   xml:space="preserve"
   width="41.586666"
   height="41.306667"
   viewBox="0 0 41.586666 41.306667"
   sodipodi:docname="layer 3 switch.eps"><metadata
     id="metadata8"><rdf:RDF><cc:Work
         rdf:about=""><dc:format>image/svg+xml</dc:format><dc:type
           rdf:resource="http://purl.org/dc/dcmitype/StillImage" /></cc:Work></rdf:RDF></metadata><defs
     id="defs6"><clipPath
       clipPathUnits="userSpaceOnUse"
       id="clipPath20"><path
         d="M 0,0 V 310 H 310 V 0 Z"
         id="path18" /></clipPath></defs><sodipodi:namedview
     pagecolor="#ffffff"
     bordercolor="#666666"
     borderopacity="1"
     objecttolerance="10"
     gridtolerance="10"
     guidetolerance="10"
     inkscape:pageopacity="0"
     inkscape:pageshadow="2"
     inkscape:window-width="640"
     inkscape:window-height="480"
     id="namedview4" /><g
     id="g10"
     inkscape:groupmode="layer"
     inkscape:label="ink_ext_XXXXXX"
     transform="matrix(1.3333333,0,0,-1.3333333,0,41.306667)"><g
       id="g12"
       transform="scale(0.1)"><g
         id="g14"><g
           id="g16"
           clip-path="url(#clipPath20)"><path
             d="m 6.19922,4.79688 h 267.07 v 266.824 h -267.07 z"
             style="fill:#087fbf;fill-opacity:1;fill-rule:nonzero;stroke:none"
             id="path22" /><path
             d="M 6.19922,4.79688 V 271.621 H 273.27 V 4.79688 Z"
             style="fill:none;stroke:#ffffff;stroke-width:4;stroke-linecap:butt;stroke-linejoin:miter;stroke-miterlimit:4;stroke-dasharray:none;stroke-opacity:1"
             id="path24" /><path
             d="M 307.004,38.2031 V 305.027 L 273.27,271.621 V 4.79688 l 33.734,33.40622"
             style="fill:#087fbf;fill-opacity:1;fill-rule:nonzero;stroke:none"
             id="path26" /><path
             d="M 307.004,38.2031 V 305.027 L 273.27,271.621 V 4.79688 Z"
             style="fill:none;stroke:#ffffff;stroke-width:4;stroke-linecap:butt;stroke-linejoin:miter;stroke-miterlimit:4;stroke-dasharray:none;stroke-opacity:1"
             id="path28" /><path
             d="M 52.5977,306.941 6.19922,273.543 H 273.27 l 33.734,33.398 H 52.5977"
             style="fill:#087fbf;fill-opacity:1;fill-rule:nonzero;stroke:none"
             id="path30" /><path
             d="M 52.5977,306.941 6.19922,273.543 H 273.27 l 33.734,33.398 z"
             style="fill:none;stroke:#ffffff;stroke-width:4;stroke-linecap:butt;stroke-linejoin:miter;stroke-miterlimit:4;stroke-dasharray:none;stroke-opacity:1"
             id="path32" /><path
             d="M 273.27,271.621 H 6.19922"
             style="fill:#087fbf;fill-opacity:1;fill-rule:nonzero;stroke:none"
             id="path34" /><path
             d="M 273.27,271.621 H 6.19922"
             style="fill:none;stroke:#ffffff;stroke-width:4;stroke-linecap:butt;stroke-linejoin:miter;stroke-miterlimit:4;stroke-dasharray:none;stroke-opacity:1"
             id="path36" /><path
             d="m 273.27,271.621 33.734,33.406"
             style="fill:#087fbf;fill-opacity:1;fill-rule:nonzero;stroke:none"
             id="path38" /><path
             d="m 273.27,271.621 33.734,33.406"
             style="fill:none;stroke:#ffffff;stroke-width:4;stroke-linecap:butt;stroke-linejoin:miter;stroke-miterlimit:4;stroke-dasharray:none;stroke-opacity:1"
             id="path40" /><path
             d="M 273.27,271.621 V 4.79688"
             style="fill:#087fbf;fill-opacity:1;fill-rule:nonzero;stroke:none"
             id="path42" /><path
             d="M 273.27,271.621 V 4.79688"
             style="fill:none;stroke:#ffffff;stroke-width:4;stroke-linecap:butt;stroke-linejoin:miter;stroke-miterlimit:4;stroke-dasharray:none;stroke-opacity:1"
             id="path44" /><path
             d="M 273.27,271.621 H 6.19922"
             style="fill:#087fbf;fill-opacity:1;fill-rule:nonzero;stroke:none"
             id="path46" /><path
             d="M 273.27,271.621 H 6.19922"
             style="fill:none;stroke:#ffffff;stroke-width:4;stroke-linecap:butt;stroke-linejoin:miter;stroke-miterlimit:4;stroke-dasharray:none;stroke-opacity:1"
             id="path48" /><path
             d="m 273.27,271.621 33.734,33.406"
             style="fill:#087fbf;fill-opacity:1;fill-rule:nonzero;stroke:none"
             id="path50" /><path
             d="m 273.27,271.621 33.734,33.406"
             style="fill:none;stroke:#ffffff;stroke-width:4;stroke-linecap:butt;stroke-linejoin:miter;stroke-miterlimit:4;stroke-dasharray:none;stroke-opacity:1"
             id="path52" /><path
             d="m 145.52,177.012 v 57.722 h 9.793 l -14.454,21.797 -14.453,-21.797 h 9.793 v -57.722 h 9.321"
             style="fill:#ffffff;fill-opacity:1;fill-rule:nonzero;stroke:none"
             id="path54" /><path
             d="m 116.063,168.672 -40.8208,40.82 6.9258,6.922 -25.625,5.195 5.1836,-25.632 6.9257,6.921 40.8207,-40.82 6.59,6.594"
             style="fill:#ffffff;fill-opacity:1;fill-rule:nonzero;stroke:none"
             id="path56" /><path
             d="M 101.133,141.941 H 43.3984 v 9.797 l -21.789,-14.453 21.789,-14.441 v 9.785 h 57.7346 v 9.312"
             style="fill:#ffffff;fill-opacity:1;fill-rule:nonzero;stroke:none"
             id="path58" /><path
             d="m 109.473,112.488 -40.8207,-40.8161 -6.9257,6.9219 -5.1836,-25.625 25.625,5.1835 -6.9258,6.9375 40.8208,40.8162 -6.59,6.582"
             style="fill:#ffffff;fill-opacity:1;fill-rule:nonzero;stroke:none"
             id="path60" /><path
             d="M 136.199,97.5664 V 39.8359 h -9.793 l 14.453,-21.8007 14.454,21.8007 h -9.793 v 57.7305 h -9.321"
             style="fill:#ffffff;fill-opacity:1;fill-rule:nonzero;stroke:none"
             id="path62" /><path
             d="m 165.652,105.906 40.825,-40.8162 -6.926,-6.9375 25.625,-5.1835 -5.188,25.625 -6.922,-6.9219 -40.82,40.8161 -6.594,-6.582"
             style="fill:#ffffff;fill-opacity:1;fill-rule:nonzero;stroke:none"
             id="path64" /><path
             d="m 180.586,132.629 h 57.734 v -9.785 l 21.785,14.441 -21.785,14.453 v -9.797 h -57.734 v -9.312"
             style="fill:#ffffff;fill-opacity:1;fill-rule:nonzero;stroke:none"
             id="path66" /><path
             d="m 172.246,162.078 40.82,40.82 6.922,-6.921 5.188,25.632 -25.625,-5.195 6.926,-6.922 -40.825,-40.82 6.594,-6.594"
             style="fill:#ffffff;fill-opacity:1;fill-rule:nonzero;stroke:none"
             id="path68" /><path
             d="m 176.289,88.418 c 27.246,19.07 33.867,56.621 14.785,83.855 -19.062,27.247 -56.621,33.868 -83.855,14.786 C 79.9805,167.988 73.3594,130.438 92.4297,103.203 111.504,75.9688 149.055,69.3438 176.289,88.418"
             style="fill:#ffffff;fill-opacity:1;fill-rule:nonzero;stroke:none"
             id="path70" /><path
             d="m 176.289,88.418 c 27.246,19.07 33.867,56.621 14.785,83.855 -19.062,27.247 -56.621,33.868 -83.855,14.786 C 79.9805,167.988 73.3594,130.438 92.4297,103.203 111.504,75.9688 149.055,69.3438 176.289,88.418 Z"
             style="fill:none;stroke:#087fbf;stroke-width:4;stroke-linecap:butt;stroke-linejoin:miter;stroke-miterlimit:4;stroke-dasharray:none;stroke-opacity:1"
             id="path72" /></g></g></g></g></svg>
