<?xml version="1.0" encoding="utf-8"?>
<!-- Generator: Adobe Illustrator 18.0.0, SVG Export Plug-In . SVG Version: 6.00 Build 0)  -->
<!DOCTYPE svg PUBLIC "-//W3C//DTD SVG 1.1//EN" "http://www.w3.org/Graphics/SVG/1.1/DTD/svg11.dtd">
<svg version="1.1" id="レイヤー_1" xmlns="http://www.w3.org/2000/svg" xmlns:xlink="http://www.w3.org/1999/xlink" x="0px"
	 y="0px" viewBox="0 0 337.5 230.5" enable-background="new 0 0 337.5 230.5" xml:space="preserve">
<g>
	<g id="XMLID_37_">
		<g>
			<polygon fill="#007EC4" points="261.5,166.9 244.6,188.3 219.9,168.7 236.9,147.3 246.6,155 241.1,161.9 244.9,162.5 
				246.6,166.3 252.1,159.4 			"/>
			<polygon fill="#B0DEF6" points="250.9,158.5 248.2,161.9 248,158.9 245.1,159.5 247.9,156.1 			"/>
			<polygon fill="#99CBE7" points="248.4,216.3 248.4,224.8 221.8,224.8 221.9,194.7 200.2,179.4 112.5,179.3 112.5,171 
				206.6,171.1 231.7,189.5 231.7,216.3 			"/>
			<polygon fill="#007EC4" points="218.7,140.5 218.7,167.8 187.2,167.7 187.2,140.4 199.6,140.5 199.6,149.3 203,147.4 
				206.6,149.3 206.6,140.5 			"/>
			<path fill="#A4C21D" d="M216.6,206.4l0,3.9l-3.7,0l-2.6,6.3l2.6,2.5l-5.6,5.7l-2.7-2.6l-6,2.4l0,3.5l-3.9,0l-3.9,0l0-3.5l-6-2.4
				l-2.7,2.6l-5.6-5.8l2.6-2.5l-2.6-6.3l-3.7,0l0-3.9l0-0.1l0-3.9l3.7,0l2.6-6.3l-2.6-2.5l5.6-5.7l2.7,2.6l6-2.4l0-3.5l3.9,0l3.9,0
				l0,3.5l6,2.4l2.7-2.6l5.6,5.8l-2.6,2.5l2.6,6.3l3.7,0L216.6,206.4L216.6,206.4z M194.6,220.6c7.8,0,14.2-6.3,14.2-14.2
				s-6.3-14.2-14.2-14.2c-7.8,0-14.2,6.3-14.2,14.2S186.8,220.6,194.6,220.6z"/>
			<polygon fill="#B0DEF6" points="205.1,140.5 205.1,144.9 203.1,142.7 201.3,144.9 201.3,140.5 			"/>
			<path fill="#A4C21D" d="M189.5,206.4c0,2.9,2.4,5.3,5.3,5.3c3,0,5.3-2.4,5.3-5.3c0-3-2.4-5.3-5.3-5.3
				C191.9,201,189.5,203.4,189.5,206.4z M203.1,206.4l0,1.5l-1.4,0l-1,2.4l1,0.9l-2.1,2.2l-1-1l-2.3,0.9l0,1.3l-1.5,0l-1.5,0l0-1.3
				l-2.3-0.9l-1,1l-2.1-2.2l1-0.9l-1-2.4l-1.4,0l0-1.5l0,0l0-1.5l1.4,0l1-2.4l-1-0.9l2.1-2.2l1,1l2.3-0.9l0-1.3l1.5,0l1.5,0l0,1.3
				l2.3,0.9l1-1l2.1,2.2l-1,0.9l1,2.4l1.4,0L203.1,206.4L203.1,206.4z"/>
			<polygon fill="#007EC4" points="181,140.4 181,167.7 149.5,167.7 149.5,140.4 161.9,140.4 161.9,149.3 165.3,147.4 168.9,149.3 
				168.9,140.4 			"/>
			<polygon fill="#B0DEF6" points="167.4,140.4 167.4,144.9 165.4,142.6 163.6,144.8 163.6,140.4 			"/>
			<path fill="#A4C21D" d="M158.4,206.3l0,1.5l-1.4,0l-1,2.4l1,0.9l-2.1,2.2l-1-1l-2.3,0.9l0,1.3l-1.5,0l-1.5,0l0-1.3l-2.3-0.9l-1,1
				l-2.1-2.2l1-0.9l-1-2.4l-1.4,0l0-1.5l0,0l0-1.5l1.4,0l1-2.4l-1-0.9l2.1-2.2l1,1l2.3-0.9l0-1.3l1.5,0l1.5,0l0,1.3l2.3,0.9l1-1
				l2.1,2.2l-1,0.9l1,2.4l1.4,0L158.4,206.3L158.4,206.3z M144.7,206.3c0,2.9,2.4,5.3,5.3,5.3c3,0,5.3-2.4,5.3-5.3
				c0-3-2.4-5.3-5.3-5.3C147.1,200.9,144.7,203.3,144.7,206.3z"/>
			<path fill="#A4C21D" d="M144.6,219.4c7.2,3.1,15.5-0.3,18.6-7.5c3.1-7.2-0.3-15.5-7.5-18.6c-7.2-3.1-15.5,0.3-18.6,7.5
				C134,208,137.3,216.3,144.6,219.4z M171.9,211.3l-1.5,3.6l0,0.1l-1.5,3.6l-3.4-1.5l-4.8,4.8l1.4,3.3l-7.4,3.1l-1.5-3.5l-6.5-0.1
				l-1.4,3.2l-3.6-1.5l-3.6-1.5l1.4-3.2l-4.6-4.6l-3.5,1.4l-2.9-7.5l3.3-1.3l0.1-6.8l-3.4-1.5l1.5-3.6l0-0.1l1.5-3.6l3.4,1.5
				l4.8-4.8l-1.4-3.3l7.4-3.1l1.5,3.5l6.5,0.1l1.4-3.2l3.6,1.5l3.6,1.5l-1.4,3.2l4.6,4.6l3.5-1.4l2.9,7.5l-3.3,1.3l-0.1,6.8
				L171.9,211.3z"/>
			<polygon fill="#007EC4" points="144.1,140.4 144.1,167.7 112.6,167.7 112.7,140.4 125,140.4 125,149.2 128.4,147.3 132.1,149.2 
				132.1,140.4 			"/>
			<polygon fill="#B0DEF6" points="130.6,140.4 130.5,144.8 128.6,142.6 126.7,144.8 126.7,140.4 			"/>
		</g>
	</g>
</g>
<g>
	<path fill="#B2D8ED" d="M22.5,190.2c0,5.7,7.6,10.3,13.1,10.2l4.1,0c5.5,0,14-4.7,14-10.3l-4.3-69.5c0-5.7-4.5-10.3-10-10.3l-4.1,0
		c-5.5,0-9.9,4.6-9.9,10.3L22.5,190.2z"/>
	<path fill="#3398D0" d="M93.7,84.2L26,139.7c-1,0.8-2.4,0.6-3.1-0.4l-8.8-12c-0.7-1-0.5-2.4,0.5-3.1l70.9-49.1
		c0.9-0.6,2-0.5,2.8,0.2l5.6,5.5C94.8,81.8,94.7,83.3,93.7,84.2z"/>
	<circle fill="#66B2DC" cx="34.3" cy="121.3" r="6.5"/>
	<circle fill="#1A7AB4" cx="34.3" cy="121.3" r="2.4"/>
	
		<rect x="18.2" y="187.4" transform="matrix(-1 3.166344e-03 -3.166344e-03 -1 77.2794 398.9288)" fill="#3398D0" width="40.2" height="24.2"/>
	<polygon fill="#007EC4" points="119.6,111.6 129.2,101.5 124.8,97.4 115.2,107.5 	"/>
	
		<rect x="134" y="116.3" transform="matrix(-0.6891 0.7247 -0.7247 -0.6891 316.0446 101.2803)" fill="#0099D5" width="4.5" height="4.3"/>
	
		<rect x="8.8" y="210.2" transform="matrix(-1 3.166344e-03 -3.166344e-03 -1 76.7854 430.9491)" fill="#007EC4" width="58.4" height="10.7"/>
	
		<rect x="0" y="219.6" transform="matrix(-1 3.166344e-03 -3.166344e-03 -1 76.8754 449.9015)" fill="#007EC4" width="76.1" height="10.7"/>
	<path fill="#B2D8ED" d="M79.2,71.3l26.9,26c0.3,0.3,0.7,0.2,0.9,0l7.1-7.3c0.3-0.3,0.2-0.7,0-0.9L87.2,63c-0.3-0.3-0.7-0.2-0.9,0
		l-7.1,7.3C79,70.6,79,71,79.2,71.3z"/>
	
		<rect x="103.8" y="91.3" transform="matrix(-0.6891 0.7247 -0.7247 -0.6891 259.9779 79.6834)" fill="#3398D0" width="18.2" height="8.5"/>
	
		<rect x="105.2" y="97.2" transform="matrix(-0.6891 0.7247 -0.7247 -0.6891 274.7002 85.1407)" fill="#B2D8ED" width="27.8" height="8.5"/>
	<polygon fill="#B2D8ED" points="129,123.4 141.2,110.6 130,99.7 117.8,112.6 	"/>
</g>
<g>
	<defs>
		
			<rect id="SVGID_3_" x="122.9" y="36.8" transform="matrix(0.9992 4.080920e-02 -4.080920e-02 0.9992 2.3006 -5.663)" width="33.9" height="33.4"/>
	</defs>
	<clipPath id="SVGID_1_">
		<use xlink:href="#SVGID_3_"  overflow="visible"/>
	</clipPath>
	<g clip-path="url(#SVGID_1_)">
		<path fill="#A4C21D" d="M139.2,77.2c-0.5,0.3-1,0.4-1.5,0.4c-1.1-0.1-1.7-1-1.3-2c4.1-12.5-3.3-23.8-16.4-25.1l0,0
			c-0.1,0-0.2,0-0.3,0c-1.1-0.1-1.6-1-1.3-2c0.4-1,1.5-1.7,2.5-1.6l0.3,0c15.3,1.5,23.8,14.5,19.1,29.1
			C140,76.5,139.7,76.9,139.2,77.2"/>
		<path fill="#A4C21D" d="M146.9,77.9c-0.5,0.3-1,0.5-1.5,0.4c-1.1-0.1-1.6-1-1.3-2c5.7-16.6-3.9-31.5-21.4-33.3l-0.1,0
			c-0.1,0-0.2,0-0.3,0c-1-0.1-1.6-1-1.2-2.1c0.4-1,1.5-1.7,2.6-1.6l0.3,0c19.6,1.9,30.4,18.6,24,37.3
			C147.8,77.2,147.4,77.6,146.9,77.9"/>
		<path fill="#A4C21D" d="M131.3,76.6c-0.5,0.3-1,0.4-1.5,0.4c-1.1-0.1-1.7-1-1.3-2c2.8-8.5-2.3-16.1-11.2-17
			c-1.1,0-1.8-0.9-1.5-1.9c0.3-1,1.3-1.8,2.4-1.8c0.1,0,0.2,0,0.4,0c11,1.1,17.2,10.5,13.8,20.9C132.1,75.8,131.8,76.3,131.3,76.6"
			/>
	</g>
</g>
<g>
	<g>
		
			<rect x="198.3" y="4.1" transform="matrix(1 -3.448171e-03 3.448171e-03 1 -1.743845e-02 0.7749)" fill="#1A7AB4" width="52.9" height="2.7"/>
		
			<rect x="198.3" y="9.3" transform="matrix(1 -3.448171e-03 3.448171e-03 1 -3.546621e-02 0.775)" fill="#1A7AB4" width="52.9" height="2.7"/>
		<polygon fill="#3398D0" points="244.9,15.9 204.6,16.1 204.5,0.1 244.9,0 		"/>
	</g>
	<path fill="#B0DEF6" d="M209.4,68c-0.4,0.5-0.8,1-1,1.5c-3.7,0.6-7.2,4.7-7.6,8.3c-0.4,3.4,0.8,6.2,3.3,8.3l0,2.1
		c-4.6-3.3-5.5-8.4-3.1-13.4C202.4,71.7,205.8,68.4,209.4,68z"/>
	<path fill="#B2D8ED" d="M244.6,18.5c0,1.2-1,2.2-2.2,2.2H207c-1.2,0-2.2-1-2.2-2.2l0,0c0-1.2,1-2.2,2.2-2.2h35.4
		C243.6,16.4,244.6,17.4,244.6,18.5L244.6,18.5z"/>
	<rect x="211.4" y="20.7" fill="#3398D0" width="26.6" height="5.1"/>
	<path fill="#3398D0" d="M260,69.8c-0.2-3.2-2.8-5.6-5.9-5.7c-0.1,0-0.3,0-0.4,0l-4.2,0.2l-14.3,0.8l-23,1.5c-1.1,0.1-2.1,0.4-3,1
		c-1.7,1.1-2.8,3.1-2.7,5.3c0,0.4,0.1,0.9,0.2,1.3c0.5,1.8,1.8,3.2,3.4,3.9c0.6,0.2,1.2,0.4,1.8,0.5c0.2,0,0.3,0,0.5,0
		c0.1,0,0.3,0,0.4,0l41.4-2.5C257.6,75.9,260.1,73.1,260,69.8z"/>
	<path fill="#3398D0" d="M234.1,34.4v-8.6h-18.7v8.6c0,5,3.9,9.1,8.9,9.3c0.2,0,0.3,0,0.4,0c2.6,0,4.9-1,6.6-2.7
		c1.2-1.2,2.1-2.8,2.5-4.5C234,35.8,234.1,35.1,234.1,34.4z"/>
	<path fill="#B2D8ED" d="M257.3,69.6c0-1.2-0.4-2.5-1.2-3.6l-1.8-2.4l-8.9-11.7l-3.3-4.4l-4.2-5.6l-1-1.3l-0.8-1l-1.1-1.4l-1.3-1.7
		l-4.2-5.6c-2-2.6-5.7-3.2-8.4-1.2c-1.6,1.2-2.4,3-2.4,4.8c0,1.2,0.4,2.5,1.2,3.6l4.2,5.6l15.8,20.8h0l6.4,8.6
		c2,2.6,5.7,3.2,8.4,1.2C256.5,73.2,257.3,71.4,257.3,69.6z"/>
	<circle fill="#EFEFEF" cx="251.2" cy="69.5" r="3"/>
	<circle fill="#1A7AB4" cx="251.3" cy="69.5" r="1.9"/>
	<circle fill="#EFEFEF" cx="225.1" cy="34.6" r="4.4"/>
	<circle fill="#1A7AB4" cx="225.1" cy="34.6" r="2.8"/>
	<path fill="#007EC4" d="M218.5,102.4l-20.2-0.5c-0.1,5.6,4.3,10.2,9.9,10.3C213.7,112.4,218.3,108,218.5,102.4z"/>
	<circle fill="#EFEFEF" cx="213.5" cy="106.5" r="2.4"/>
	<circle fill="#EFEFEF" cx="202.8" cy="106.4" r="2.4"/>
	<path fill="#66B2DC" d="M218.1,117.6c-0.8-0.4-1.9-0.1-2.3,0.8l-5.7,11.5c-0.4,0.8-0.1,1.9,0.8,2.3l0,0c0.8,0.4,1.9,0.1,2.3-0.8
		l5.7-11.5C219.3,119,219,118,218.1,117.6L218.1,117.6z"/>
	<path fill="#0099D5" d="M213.2,105.1c-0.9,0.3-1.4,1.2-1.1,2.1l3.7,12.3c0.3,0.9,1.2,1.4,2.1,1.1l0,0c0.9-0.3,1.4-1.2,1.1-2.1
		l-3.7-12.3C215,105.4,214.1,104.8,213.2,105.1L213.2,105.1z"/>
	<path fill="#66B2DC" d="M197.8,117.1c0.9-0.4,1.9,0,2.3,0.9l5.2,11.8c0.4,0.9,0,1.9-0.9,2.3l0,0c-0.9,0.4-1.9,0-2.3-0.9l-5.2-11.8
		C196.6,118.5,197,117.5,197.8,117.1L197.8,117.1z"/>
	<path fill="#0099D5" d="M203.4,104.9c0.9,0.3,1.4,1.3,1,2.2l-4.3,12.2c-0.3,0.9-1.3,1.4-2.2,1l0,0c-0.9-0.3-1.4-1.3-1-2.2l4.3-12.2
		C201.5,105.1,202.5,104.6,203.4,104.9L203.4,104.9z"/>
	<circle fill="#EFEFEF" cx="217.4" cy="119.1" r="1.3"/>
	<circle fill="#0099D5" cx="217.4" cy="119.1" r="0.8"/>
	<circle fill="#EFEFEF" cx="198.6" cy="118.6" r="1.3"/>
	<circle fill="#0099D5" cx="198.6" cy="118.6" r="0.8"/>
	
		<rect x="198.3" y="94.4" transform="matrix(0.9997 2.241203e-02 -2.241203e-02 0.9997 2.2545 -4.6466)" fill="#B2D8ED" width="20.2" height="7.8"/>
	<polygon fill="#3398D0" points="213.8,85.1 213.6,94.5 202.9,94.2 203,88.2 203,86.1 203.1,84.9 204.9,84.9 212,85.1 	"/>
	<path fill="#B2D8ED" d="M209.5,70.7l-4.1,7.5c-0.2,0.4-0.4,0.9-0.4,1.3c0,0.1,0,0.2,0,0.3l-0.2,8.6c0,1.9,1.5,3.6,3.4,3.6
		c1,0,1.9-0.4,2.5-1c0.6-0.6,1.1-1.5,1.1-2.5l0.2-7.7l3.7-6.7c0.9-1.7,0.3-3.8-1.4-4.8C212.6,68.3,210.5,69,209.5,70.7z"/>
	<circle fill="#EFEFEF" cx="208.4" cy="88.3" r="2.4"/>
	<circle fill="#1A7AB4" cx="208.4" cy="88.3" r="1.5"/>
	<circle fill="#EFEFEF" cx="212.7" cy="72.3" r="2.4"/>
	<circle fill="#1A7AB4" cx="212.7" cy="72.3" r="1.5"/>
	<path fill="#B2D8ED" d="M238,22.2V24c2.6,2.8,3.4,6.4,2.1,10.4c-0.7,2.2-1.7,4.5-3.2,6.2l1,1.3c2.6-2.6,4-6.6,4.5-10.1
		C243,28,240.9,24.6,238,22.2z"/>
	<path fill="#3398D0" d="M235.7,25.8h-1.6v0c2.5,3.5,3.1,8.6,1,12.3l1.1,1.4C239,35.6,238.4,29.8,235.7,25.8z"/>
</g>
<g>
	<path fill="#99CBE7" d="M270.5,212l32,3.1c-1.9,1-3.2,2.2-3.9,3.6c-17.3-1.7-28.5-2.8-28.5-2.8L270.5,212z"/>
	<polygon fill="#007EC4" points="295.2,183.6 292.8,210.4 261.8,207.6 264.3,180.8 276.5,181.9 275.7,190.6 279.2,189 282.6,191.2 
		283.4,182.5 	"/>
	<polygon fill="#B0DEF6" points="281.9,182.4 281.5,186.7 279.7,184.4 277.7,186.4 278.1,182 	"/>
	<path fill="#66B2DC" d="M327.5,218.8c-0.5,6.4-6,11.2-12.4,10.7c-6.4-0.5-11.2-6-10.7-12.4c0.5-6.4,6-11.2,12.4-10.7
		C323.2,206.8,328,212.4,327.5,218.8z M308.7,220c0.1,0.3,0.2,0.6,0.3,0.9l-1.6,1.4l3.3,3.9l1.6-1.4c0.3,0.2,0.6,0.3,0.8,0.4
		l-0.2,2.1l5.1,0.4l0.2-2.1c0.3-0.1,0.6-0.2,0.9-0.3l1.4,1.6l3.9-3.3l-1.3-1.6c0.2-0.3,0.3-0.6,0.4-0.8l2.1,0.2l0.4-5.1l-2.1-0.2
		c-0.1-0.3-0.2-0.6-0.3-0.9l1.6-1.4l-3.3-3.9l-1.6,1.4c-0.3-0.2-0.6-0.3-0.8-0.4l0.2-2.1l-5.1-0.4l-0.2,2.1
		c-0.3,0.1-0.6,0.2-0.9,0.3l-1.4-1.6l-3.9,3.3l1.4,1.6c-0.2,0.3-0.3,0.6-0.4,0.8l-2.1-0.2l-0.4,5.1L308.7,220z"/>
	<path fill="#66B2DC" d="M309.7,169.5l-0.4,4.7c1.3-0.5,2.7-0.9,4.2-1.1l0.2-3.3L309.7,169.5z"/>
	<polygon fill="#66B2DC" points="290.4,188.1 290.2,190.6 297.5,197.4 298.2,188.6 	"/>
	<path fill="#A4C21D" d="M328.9,188.1l7.7,0.6c0.8,2.4,1.1,5,0.9,7.7l-0.8,10.6l-6.1-0.5l-4.7-7.4l0.6-8.5
		C326.8,188,328.7,188,328.9,188.1z M335.4,200.2l0.1-1.7l-5.5-0.4l-0.1,1.7L335.4,200.2z M335.7,196l0.1-1.7l-5.5-0.4l-0.1,1.7
		L335.7,196z"/>
	<path fill="#66B2DC" d="M312.4,158.7l-0.1,2c-0.2,3.2-3,5.6-6.2,5.4l-9-0.6c-3.2-0.2-5.6-3-5.4-6.2l0.1-2c0.2-3.2,3-5.6,6.2-5.4
		l9,0.6C310.2,152.7,312.7,155.5,312.4,158.7z M307.5,159.3c0.2-2.7-1.9-5.1-4.6-5.3c-2.7-0.2-5.1,1.9-5.3,4.6
		c-0.2,2.7,1.9,5.1,4.6,5.3C304.9,164.1,307.3,162,307.5,159.3z"/>
	<path fill="#1A7AB4" d="M310.2,216.7l0.2-0.6c0.2-0.6,0.5-1.1,0.8-1.6l0.4-0.6l-1.1-1.3l1.2-1.1l1.1,1.3l0.6-0.3
		c0.5-0.3,1.1-0.5,1.7-0.6l0.7-0.1l0.1-1.7l1.6,0.1l-0.1,1.7l0.6,0.2c0.6,0.2,1.1,0.5,1.6,0.8l0.6,0.4l1.3-1.1l1.1,1.2l-1.3,1.1
		l0.3,0.6c0.3,0.5,0.5,1.1,0.6,1.7l0.1,0.7l1.7,0.1l-0.1,1.6l-1.7-0.1l-0.2,0.6c-0.2,0.6-0.5,1.1-0.8,1.6l-0.4,0.6l1.1,1.3l-1.2,1.1
		l-1.1-1.3l-0.6,0.3c-0.5,0.3-1.1,0.5-1.7,0.6l-0.7,0.1l-0.1,1.7l-1.6-0.1l0.1-1.7l-0.6-0.2c-0.6-0.2-1.1-0.5-1.6-0.8l-0.6-0.4
		l-1.3,1.1l-1.1-1.2l1.3-1.1l-0.3-0.6c-0.3-0.5-0.5-1.1-0.6-1.7l-0.1-0.7l-1.7-0.1l0.1-1.6L310.2,216.7z M315.7,221.3
		c1.8,0.1,3.5-1.3,3.6-3.1c0.1-1.8-1.3-3.5-3.1-3.6c-1.9-0.1-3.5,1.3-3.6,3.1C312.5,219.5,313.9,221.2,315.7,221.3z"/>
	<path fill="#AECAD4" d="M302.3,161.3c1.3,0.1,2.4-0.9,2.5-2.2c0.1-1.3-0.9-2.4-2.2-2.5c-1.3-0.1-2.4,0.9-2.5,2.2
		C300,160.1,301,161.3,302.3,161.3z M302.7,155.8c1.8,0.1,3.1,1.7,3,3.4c-0.1,1.8-1.7,3.1-3.4,3c-1.8-0.1-3.1-1.7-3-3.4
		C299.4,157,301,155.6,302.7,155.8z"/>
	<path fill="#007EC4" d="M333,160.1l-0.1,2c-0.2,3.2-3,5.6-6.2,5.4l-15.8-1.1c1.7-1.3,2.9-3.3,3.1-5.6l0.1-2c0.2-2.3-0.8-4.5-2.3-6
		l15.8,1.1C330.9,154.1,333.3,156.9,333,160.1z"/>
	<path fill="#007EC4" d="M297,193.3l-1.6,21.6l6.7,0.5c1-6.9,7.2-12,14.2-11.5c7,0.5,12.4,6.5,12.4,13.4l7.2,0.5l0.7-9.3l-7-0.5
		l-5.5-8.7l0.7-9.1c0.3-3.5,2.9-4.2,4.2-4.1l6.9,0.5c-2.9-6.8-9.4-11.7-17.2-12.3C307.6,173.7,297.8,182.1,297,193.3z"/>
	<path fill="#B0DEF6" d="M309,214.9c0.1-0.3,0.3-0.6,0.4-0.8l-1.4-1.6l3.9-3.3l1.4,1.6c0.3-0.1,0.6-0.2,0.9-0.3l0.2-2.1l5.1,0.4
		l-0.2,2.1c0.3,0.1,0.6,0.3,0.8,0.4l1.6-1.4l3.3,3.9l-1.6,1.4c0.1,0.3,0.2,0.6,0.3,0.9l2.1,0.2l-0.4,5.1l-2.1-0.2
		c-0.1,0.3-0.3,0.6-0.4,0.8l1.3,1.6l-3.9,3.3l-1.4-1.6c-0.3,0.1-0.6,0.2-0.9,0.3l-0.2,2.1l-5.1-0.4l0.2-2.1
		c-0.3-0.1-0.6-0.3-0.8-0.4l-1.6,1.4l-3.3-3.9l1.6-1.4c-0.1-0.3-0.2-0.6-0.3-0.9l-2.1-0.2l0.4-5.1L309,214.9z M310.1,218.3l0.1,0.7
		c0.1,0.6,0.3,1.2,0.6,1.7l0.3,0.6l-1.3,1.1l1.1,1.2l1.3-1.1l0.6,0.4c0.5,0.3,1,0.6,1.6,0.8l0.6,0.2l-0.1,1.7l1.6,0.1l0.1-1.7
		l0.7-0.1c0.6-0.1,1.2-0.3,1.7-0.6l0.6-0.3l1.1,1.3l1.2-1.1l-1.1-1.3l0.4-0.6c0.4-0.5,0.6-1,0.8-1.6l0.2-0.6l1.7,0.1l0.1-1.6
		l-1.7-0.1l-0.1-0.7c-0.1-0.6-0.3-1.2-0.6-1.7l-0.3-0.6l1.3-1.1l-1.1-1.2l-1.3,1.1l-0.6-0.4c-0.5-0.3-1-0.6-1.6-0.8l-0.6-0.2
		l0.1-1.7l-1.6-0.1l-0.1,1.7l-0.7,0.1c-0.6,0.1-1.2,0.3-1.7,0.6l-0.6,0.3l-1.1-1.3l-1.2,1.1l1.1,1.3l-0.4,0.6
		c-0.3,0.5-0.6,1-0.8,1.6l-0.2,0.6l-1.7-0.1l-0.1,1.6L310.1,218.3z"/>
	<path fill="#B0DEF6" d="M319.3,218.2c-0.1,1.9-1.8,3.2-3.6,3.1c-1.9-0.1-3.2-1.8-3.1-3.6c0.1-1.8,1.8-3.2,3.6-3.1
		C318.1,214.7,319.5,216.3,319.3,218.2z M315.8,219.6c0.9,0.1,1.7-0.6,1.7-1.5c0.1-0.9-0.6-1.7-1.5-1.7s-1.7,0.6-1.7,1.5
		C314.3,218.7,315,219.5,315.8,219.6z"/>
	<path fill="#1A7AB4" d="M302.9,154c2.7,0.2,4.8,2.6,4.6,5.3c-0.2,2.7-2.6,4.8-5.3,4.6c-2.7-0.2-4.8-2.6-4.6-5.3
		C297.7,155.9,300.1,153.8,302.9,154z M305.7,159.2c0.1-1.8-1.2-3.3-3-3.4c-1.8-0.1-3.3,1.2-3.4,3c-0.1,1.8,1.2,3.3,3,3.4
		C304.1,162.3,305.6,161,305.7,159.2z"/>
	<path fill="#AECAD4" d="M304.9,159.1c-0.1,1.3-1.2,2.3-2.5,2.2c-1.3-0.1-2.3-1.2-2.2-2.5c0.1-1.3,1.2-2.3,2.5-2.2
		C304,156.7,305,157.8,304.9,159.1z M303.1,159c0-0.4-0.2-0.7-0.6-0.7c-0.3,0-0.7,0.2-0.7,0.6c0,0.3,0.2,0.7,0.6,0.7
		C302.8,159.6,303.1,159.4,303.1,159z"/>
	
		<rect x="331.9" y="196.4" transform="matrix(7.389558e-02 -0.9973 0.9973 7.389558e-02 109.5412 516.2854)" fill="#1A7AB4" width="1.7" height="5.5"/>
	
		<rect x="332.2" y="192.2" transform="matrix(7.389558e-02 -0.9973 0.9973 7.389558e-02 114.0317 512.6951)" fill="#1A7AB4" width="1.7" height="5.5"/>
</g>
</svg>
