<svg id="Capa_1" enable-background="new 0 0 510 510" height="512" viewBox="0 0 510 510" width="512" xmlns="http://www.w3.org/2000/svg" xmlns:xlink="http://www.w3.org/1999/xlink"><linearGradient id="lg1"><stop offset="0" stop-color="#0b799d"/><stop offset="1" stop-color="#07485e"/></linearGradient><linearGradient id="SVGID_1_" gradientUnits="userSpaceOnUse" x1="227.815" x2="287.676" xlink:href="#lg1" y1="408.293" y2="482.837"/><linearGradient id="SVGID_2_" gradientUnits="userSpaceOnUse" x1="287.907" x2="263.623" y1="426.977" y2="324.761"><stop offset="0" stop-color="#07485e" stop-opacity="0"/><stop offset="1" stop-color="#03232e"/></linearGradient><linearGradient id="SVGID_3_" gradientUnits="userSpaceOnUse" x1="150.372" x2="492.466" xlink:href="#lg1" y1="82.711" y2="424.805"/><linearGradient id="SVGID_4_" gradientUnits="userSpaceOnUse" x1="429.165" x2="24.811" xlink:href="#lg1" y1="361.505" y2="-42.85"/><linearGradient id="SVGID_5_" gradientUnits="userSpaceOnUse" x1="143.565" x2="366.61" y1="75.905" y2="298.949"><stop offset="0" stop-color="#edf5ff"/><stop offset="1" stop-color="#d5e8fe"/></linearGradient><linearGradient id="SVGID_6_" gradientUnits="userSpaceOnUse" x1="269.837" x2="236.07" xlink:href="#lg1" y1="45.078" y2="11.311"/><linearGradient id="SVGID_7_" gradientTransform="matrix(-1 0 0 -1 -554 -824)" gradientUnits="userSpaceOnUse" x1="-799.688" x2="-820.88" xlink:href="#lg1" y1="-844.93" y2="-866.122"/><linearGradient id="SVGID_8_" gradientUnits="userSpaceOnUse" x1="244.984" x2="281.79" xlink:href="#lg1" y1="462.62" y2="563.837"/><linearGradient id="SVGID_9_" gradientUnits="userSpaceOnUse" x1="50.726" x2="75.204" y1="341.977" y2="366.455"><stop offset="0" stop-color="#b9dd39"/><stop offset="1" stop-color="#0b799d"/></linearGradient><g><path d="m361.923 461.896c-35.869-11.594-60.172-44.991-60.172-82.686v-31.745h-93.501v31.745c0 37.696-24.303 71.093-60.172 82.686z" fill="url(#SVGID_1_)"/><path d="m301.751 379.21v-31.745h-93.501v20.846l93.585 93.585h60.088c-35.869-11.593-60.172-44.99-60.172-82.686z" fill="url(#SVGID_2_)"/><g><g><g><path d="m477.622 368.312h-445.244c-17.882 0-32.378-14.497-32.378-32.378v-297.189c0-17.882 14.496-32.378 32.378-32.378h445.244c17.882 0 32.378 14.496 32.378 32.378v297.189c0 17.881-14.496 32.378-32.378 32.378z" fill="url(#SVGID_3_)"/><path d="m460.059 344.437h-410.117c-14.216 0-25.74-11.524-25.74-25.74v-262.716c0-14.216 11.524-25.74 25.74-25.74h410.117c14.216 0 25.74 11.524 25.74 25.74v262.716c-.001 14.216-11.525 25.74-25.74 25.74z" fill="url(#SVGID_4_)"/><path d="m447.416 328.921h-384.832c-13.057 0-23.642-10.585-23.642-23.642v-235.88c0-13.057 10.585-23.642 23.642-23.642h384.831c13.057 0 23.642 10.585 23.642 23.642v235.879c.001 13.058-10.584 23.643-23.641 23.643z" fill="url(#SVGID_5_)"/><g fill="#b5dbff"><path d="m184.013 263.574h-104.397c-7.252 0-13.131-5.879-13.131-13.131v-126.207c0-7.252 5.879-13.131 13.131-13.131h104.397c7.252 0 13.131 5.879 13.131 13.131v126.206c0 7.252-5.879 13.132-13.131 13.132z"/><g><g><path d="m304.413 149.105h-71.598c-5.247 0-9.5-4.253-9.5-9.5v-19c0-5.247 4.253-9.5 9.5-9.5h71.598c5.247 0 9.5 4.253 9.5 9.5v19c0 5.246-4.254 9.5-9.5 9.5z"/><path d="m434.015 149.105h-89.201c-5.247 0-9.5-4.253-9.5-9.5v-19c0-5.247 4.253-9.5 9.5-9.5h89.201c5.247 0 9.5 4.253 9.5 9.5v19c0 5.246-4.253 9.5-9.5 9.5z"/></g><g><path d="m398.216 206.339h35.799c5.247 0 9.5-4.253 9.5-9.5v-19c0-5.247-4.253-9.5-9.5-9.5h-35.799c-5.247 0-9.5 4.253-9.5 9.5v19c0 5.247 4.254 9.5 9.5 9.5z"/><path d="m232.814 206.339h125c5.247 0 9.5-4.253 9.5-9.5v-19c0-5.247-4.253-9.5-9.5-9.5h-125c-5.247 0-9.5 4.253-9.5 9.5v19c0 5.247 4.254 9.5 9.5 9.5z"/></g><g><path d="m304.413 263.574h-71.598c-5.247 0-9.5-4.253-9.5-9.5v-19c0-5.247 4.253-9.5 9.5-9.5h71.598c5.247 0 9.5 4.253 9.5 9.5v19c0 5.246-4.254 9.5-9.5 9.5z"/><path d="m434.015 263.574h-89.201c-5.247 0-9.5-4.253-9.5-9.5v-19c0-5.247 4.253-9.5 9.5-9.5h89.201c5.247 0 9.5 4.253 9.5 9.5v19c0 5.246-4.253 9.5-9.5 9.5z"/></g></g></g><circle cx="255" cy="30.241" fill="url(#SVGID_6_)" r="9.891"/><circle cx="255" cy="30.241" fill="url(#SVGID_7_)" r="6.208"/></g></g></g><path d="m402.987 503.633h-295.974c-6.223 0-11.267-5.044-11.267-11.267 0-19.975 16.193-36.168 36.168-36.168h246.172c19.975 0 36.168 16.193 36.168 36.168 0 6.223-5.044 11.267-11.267 11.267z" fill="url(#SVGID_8_)"/><path d="m59.888 358.768h-7.347c-4.214 0-7.629-3.416-7.629-7.629v-7.347c0-4.214 3.416-7.629 7.629-7.629h7.347c4.214 0 7.629 3.416 7.629 7.629v7.347c0 4.213-3.415 7.629-7.629 7.629z" fill="url(#SVGID_9_)"/></g></svg>