<?xml version="1.0" encoding="UTF-8"?>
<!DOCTYPE svg PUBLIC "-//W3C//DTD SVG 1.1//EN" "http://www.w3.org/Graphics/SVG/1.1/DTD/svg11.dtd">
<!-- Creator: CorelDRAW -->
<svg xmlns="http://www.w3.org/2000/svg" xml:space="preserve" width="100%" height="100%" style="shape-rendering:geometricPrecision; text-rendering:geometricPrecision; image-rendering:optimizeQuality; fill-rule:evenodd; clip-rule:evenodd"
viewBox="0 0 210 60"
 xmlns:xlink="http://www.w3.org/1999/xlink">
 <defs>
  <style type="text/css">
   <![CDATA[
    .dam-str6 {stroke:black;stroke-width:0.0762}
    .dam-str3 {stroke:black;stroke-width:0.0762;stroke-linejoin:bevel}
    .dam-str2 {stroke:#003333;stroke-width:0.0762}
    .dam-str4 {stroke:lime;stroke-width:0.0762;stroke-linejoin:bevel}
    .dam-str5 {stroke:#336666;stroke-width:0.0762;stroke-linejoin:bevel}
    .dam-str0 {stroke:#332C2B;stroke-width:0.1778}
    .dam-str1 {stroke:#0D7D46;stroke-width:0.3969}
    .dam-str7 {stroke:black;stroke-width:0.0762;stroke-linejoin:bevel;stroke-dasharray:-194004.279800 -117765.882400}
    .dam-fil1 {fill:none}
    .dam-fil4 {fill:#9D4A2E}
    .dam-fil2 {fill:#BDAB6F}
    .dam-fil5 {fill:#D4C8C9}
    .dam-fil3 {fill:#DB8234}
    .dam-fil0 {fill:#E8DBAF}
   ]]>
  </style>
 </defs>
 <g id="图层_x0020_1">
  <metadata id="CorelCorpID_0Corel-Layer"/>
  <polygon class="dam-fil0" points="27.0979,40.7524 53.3011,29.763 58.6471,27.6266 113.265,6.3252 114.521,6.3254 114.521,5.9148 126.297,5.899 143.337,13.0661 206.694,40.6592 "/>
  <path class="dam-fil1 dam-str0" d="M0.8253 49.5543c69.8717,0.0649 139.585,-0.184 209.25,-0.03l-0.0406 0.2779c-69.8515,-0.073 -139.739,0.2383 -209.783,0.2748l0.076 -0.5252 0.4974 0.0025 0.0002 0z"/>
  <polyline class="dam-fil1 dam-str1" points="207.662,40.8777 143.351,12.8578 126.117,5.6453 "/>
  <path class="dam-fil2" d="M126.171 5.9038c0,0 1.2445,0.643 1.7759,0.9477 0.5314,0.3047 1.5634,0.6595 2.7435,1.1663 1.1801,0.5068 3.8237,1.5355 4.2485,1.835 0.4248,0.2995 3.7046,1.4559 3.9221,1.6225 0.2175,0.1666 1.8408,0.6619 2.208,0.8687 0.3672,0.2068 2.0055,0.7451 2.4223,1.0626 0.4168,0.3175 2.5256,1.0033 2.8365,1.2414 0.3109,0.2381 2.317,0.8065 2.7933,1.2563 0.4763,0.4498 3.1222,0.8729 3.7572,1.4815 0.635,0.6086 1.9183,0.8203 1.9183,0.8203 0,0 1.4952,0.5389 2.1121,0.9368 0.6169,0.3979 1.6775,0.607 2.1362,1.0006 0.4587,0.3936 2.9388,1.097 3.848,1.7402 0.9092,0.6432 2.3208,0.9136 2.99,1.3361 0.6692,0.4225 1.369,0.4944 1.369,0.4944l3.4516 1.5778c6.6422,2.9548 13.278,6.0422 19.7549,8.7765 1.38,0.5826 3.0957,1.2814 4.8071,1.9699 1.7114,0.6886 3.419,1.3674 4.7818,1.9095 1.3629,0.5422 3.5984,1.3511 4.8579,2.1252 0.5068,0.3114 1.2458,0.5045 1.7666,0.6314 0.2209,0.0538 0.0997,0.0542 0.328,0.0448l-54.7624 -23.9465 -6.8048 -2.8352 -2.0958 -0.9015 -2.0871 -0.8535 -14.9511 -6.2977 -0.015 0.038 -0.1126 -0.0491z"/>
  <polygon class="dam-fil3 dam-str2" points="25.3641,40.7328 27.0969,40.7526 113.168,6.339 113.211,5.568 "/>
  <polygon class="dam-fil4" points="26.665,40.7095 25.9085,40.7016 113.166,5.8393 113.166,6.2455 "/>
  <line class="dam-fil1 dam-str3" x1="113.647" y1="5.653" x2="125.45" y2= "5.653" />
  <polygon class="dam-fil5" points="0.3171,40.887 47.0423,40.781 51.3493,40.7747 78.4459,40.7353 166.025,40.7489 171.076,40.7489 182.771,40.7489 185.488,40.7682 211.24,40.7489 210.214,49.5243 76.1451,49.4474 29.7379,49.6971 0.3219,49.5518 "/>
  <line class="dam-fil1 dam-str3" x1="113.211" y1="6.3253" x2="114.74" y2= "6.3253" />
  <line class="dam-fil1 dam-str3" x1="113.647" y1="4.7799" x2="113.647" y2= "5.653" />
  <line class="dam-fil1 dam-str3" x1="113.211" y1="5.653" x2="113.211" y2= "4.7799" />
  <line class="dam-fil1 dam-str3" x1="114.521" y1="5.9149" x2="114.521" y2= "6.3253" />
  <line class="dam-fil1 dam-str3" x1="113.909" y1="5.9149" x2="114.521" y2= "5.9149" />
  <line class="dam-fil1 dam-str4" x1="113.211" y1="5.653" x2="113.211" y2= "6.3253" />
  <line class="dam-fil1 dam-str3" x1="113.211" y1="6.3253" x2="113.211" y2= "5.653" />
  <line class="dam-fil1 dam-str3" x1="113.211" y1="4.7799" x2="113.647" y2= "4.7799" />
  <line class="dam-fil1 dam-str3" x1="114.521" y1="5.9149" x2="126.298" y2= "5.9149" />
  <line class="dam-fil1 dam-str5" x1="125.638" y1="4.7806" x2="125.9" y2= "4.7806" />
  <line class="dam-fil1 dam-str5" x1="125.638" y1="4.7806" x2="125.572" y2= "5.4487" />
  <line class="dam-fil1 dam-str5" x1="125.9" y1="4.7806" x2="125.966" y2= "5.4487" />
  <line class="dam-fil1 dam-str5" x1="125.572" y1="5.4487" x2="125.428" y2= "5.4487" />
  <line class="dam-fil1 dam-str5" x1="125.428" y1="5.4487" x2="125.428" y2= "5.653" />
  <line class="dam-fil1 dam-str5" x1="126.109" y1="5.4487" x2="126.109" y2= "5.653" />
  <line class="dam-fil1 dam-str5" x1="126.109" y1="5.4487" x2="125.966" y2= "5.4487" />
  <line class="dam-fil1 dam-str5" x1="125.428" y1="5.653" x2="126.109" y2= "5.653" />
  <polyline class="dam-fil1 dam-str6" points="9.3372,40.7687 9.3929,41.2677 9.5223,40.7776 "/>
  <line class="dam-fil1 dam-str7" x1="0.3177" y1="40.7996" x2="101.532" y2= "40.7489" />
  <polyline class="dam-fil1 dam-str6" points="55.8402,40.7263 55.8803,41.1015 55.9735,40.733 "/>
  <polyline class="dam-fil1 dam-str6" points="60.4592,40.7243 60.5138,41.2351 60.6407,40.7334 "/>
  <polyline class="dam-fil1 dam-str6" points="32.5913,40.7487 32.6314,41.1239 32.7246,40.7554 "/>
  <polyline class="dam-fil1 dam-str6" points="69.7879,40.7215 69.828,41.0967 69.9212,40.7282 "/>
  <polyline class="dam-fil1 dam-str6" points="65.1369,40.7253 65.177,41.1005 65.2702,40.732 "/>
  <polyline class="dam-fil1 dam-str6" points="80.9387,40.7095 80.9788,41.0847 81.072,40.7162 "/>
  <polyline class="dam-fil1 dam-str6" points="85.5788,40.7152 85.6189,41.0904 85.7121,40.7219 "/>
  <polyline class="dam-fil1 dam-str6" points="94.8632,40.7457 94.9033,41.1209 94.9965,40.7524 "/>
  <polyline class="dam-fil1 dam-str6" points="99.4953,40.7119 99.5354,41.0871 99.6286,40.7186 "/>
  <polyline class="dam-fil1 dam-str6" points="103.321,40.7169 103.361,41.0921 103.454,40.7236 "/>
  <polyline class="dam-fil1 dam-str6" points="107.959,40.714 107.999,41.0892 108.092,40.7207 "/>
  <polyline class="dam-fil1 dam-str6" points="112.616,40.7209 112.657,41.0961 112.75,40.7276 "/>
  <polyline class="dam-fil1 dam-str6" points="117.279,40.7215 117.319,41.0967 117.412,40.7282 "/>
  <polyline class="dam-fil1 dam-str6" points="27.9472,40.7457 27.9873,41.1209 28.0805,40.7524 "/>
  <polyline class="dam-fil1 dam-str6" points="23.3018,40.7554 23.3419,41.1306 23.4351,40.7621 "/>
  <polyline class="dam-fil1 dam-str6" points="18.6379,40.7529 18.678,41.1281 18.7712,40.7596 "/>
  <polyline class="dam-fil1 dam-str6" points="13.9996,40.755 14.0397,41.1302 14.1329,40.7617 "/>
  <polyline class="dam-fil1 dam-str6" points="4.6975,40.7592 4.7376,41.1344 4.8308,40.7659 "/>
  <polyline class="dam-fil1 dam-str6" points="37.2372,40.7628 37.2773,41.138 37.3705,40.7695 "/>
  <polyline class="dam-fil1 dam-str6" points="41.8917,40.7387 41.9318,41.1139 42.025,40.7454 "/>
  <polyline class="dam-fil1 dam-str6" points="51.1875,40.7342 51.2276,41.1094 51.3208,40.7409 "/>
  <polyline class="dam-fil1 dam-str6" points="46.5406,40.733 46.5807,41.1082 46.6739,40.7397 "/>
  <polyline class="dam-fil1 dam-str6" points="74.4215,40.7196 74.4616,41.0948 74.5548,40.7263 "/>
  <polyline class="dam-fil1 dam-str6" points="121.912,40.7165 121.952,41.0917 122.046,40.7232 "/>
  <polyline class="dam-fil1 dam-str6" points="127.395,40.7158 127.435,41.091 127.528,40.7225 "/>
  <polyline class="dam-fil1 dam-str6" points="132.033,40.742 132.073,41.1172 132.166,40.7487 "/>
  <polyline class="dam-fil1 dam-str6" points="136.704,40.728 136.744,41.1032 136.837,40.7347 "/>
  <polyline class="dam-fil1 dam-str6" points="141.345,40.7224 141.385,41.0976 141.479,40.7291 "/>
  <polyline class="dam-fil1 dam-str6" points="146.001,40.7162 146.042,41.0914 146.135,40.7229 "/>
  <polyline class="dam-fil1 dam-str6" points="150.647,40.7283 150.688,41.1035 150.781,40.735 "/>
  <polyline class="dam-fil1 dam-str6" points="155.276,40.7079 155.316,41.0831 155.41,40.7146 "/>
  <polyline class="dam-fil1 dam-str6" points="159.953,40.7225 159.993,41.0977 160.086,40.7292 "/>
  <polyline class="dam-fil1 dam-str6" points="164.602,40.7094 164.642,41.0846 164.735,40.7161 "/>
  <polyline class="dam-fil1 dam-str6" points="169.239,40.7179 169.279,41.0931 169.372,40.7246 "/>
  <polyline class="dam-fil1 dam-str6" points="173.905,40.7063 173.945,41.0815 174.038,40.713 "/>
  <g id="_6377728">
   <polyline id="_6377920" class="dam-fil1 dam-str4" points="200.539,37.6611 200.523,37.1262 200.369,36.861 "/>
   <polyline id="_6377824" class="dam-fil1 dam-str4" points="200.539,37.6611 200.8,37.2165 200.788,36.9728 "/>
   <polyline id="_6377704" class="dam-fil1 dam-str4" points="200.539,37.6611 201.015,37.3943 201.347,37.4445 "/>
  </g>
  <polyline class="dam-fil1 dam-str6" points="90.2189,40.7216 90.259,41.0968 90.3522,40.7283 "/>
  <polyline class="dam-fil1 dam-str6" points="178.535,40.7365 178.575,41.1117 178.668,40.7432 "/>
  <polyline class="dam-fil1 dam-str6" points="183.179,40.7365 183.219,41.1117 183.312,40.7432 "/>
  <polyline class="dam-fil1 dam-str6" points="187.829,40.7331 187.869,41.1083 187.962,40.7398 "/>
  <polyline class="dam-fil1 dam-str6" points="192.505,40.7365 192.545,41.1117 192.639,40.7432 "/>
  <polyline class="dam-fil1 dam-str6" points="197.143,40.7236 197.183,41.0988 197.276,40.7303 "/>
  <polyline class="dam-fil1 dam-str6" points="201.774,40.7236 201.814,41.0988 201.907,40.7303 "/>
  <polyline class="dam-fil1 dam-str6" points="206.41,40.7236 206.45,41.0988 206.544,40.7303 "/>
  <polyline class="dam-fil1 dam-str7" points="76.3789,40.7489 89.406,40.7489 89.6717,40.7386 91.0511,40.7386 91.4751,40.7489 211.377,40.7489 "/>
  <g id="_247575368">
   <polyline id="_247252512" class="dam-fil1 dam-str4" points="190.893,33.4201 190.877,32.8852 190.723,32.62 "/>
   <polyline id="_247584776" class="dam-fil1 dam-str4" points="190.893,33.4201 191.154,32.9755 191.142,32.7318 "/>
   <polyline id="_247578776" class="dam-fil1 dam-str4" points="190.893,33.4201 191.369,33.1533 191.701,33.2035 "/>
  </g>
  <g id="_247579880">
   <polyline id="_247580840" class="dam-fil1 dam-str4" points="178.775,28.1813 178.759,27.6464 178.605,27.3812 "/>
   <polyline id="_247583960" class="dam-fil1 dam-str4" points="178.775,28.1813 179.036,27.7367 179.024,27.493 "/>
   <polyline id="_247579472" class="dam-fil1 dam-str4" points="178.775,28.1813 179.251,27.9145 179.583,27.9647 "/>
  </g>
  <g id="_247577912">
   <polyline id="_247581872" class="dam-fil1 dam-str4" points="167.398,23.2071 167.382,22.6722 167.228,22.407 "/>
   <polyline id="_247584560" class="dam-fil1 dam-str4" points="167.398,23.2071 167.659,22.7625 167.647,22.5188 "/>
   <polyline id="_247581560" class="dam-fil1 dam-str4" points="167.398,23.2071 167.874,22.9403 168.206,22.9905 "/>
  </g>
  <g id="_247084840">
   <polyline id="_247078576" class="dam-fil1 dam-str4" points="156.136,18.3209 156.12,17.786 155.966,17.5208 "/>
   <polyline id="_247078648" class="dam-fil1 dam-str4" points="156.136,18.3209 156.397,17.8763 156.385,17.6326 "/>
   <polyline id="_247078792" class="dam-fil1 dam-str4" points="156.136,18.3209 156.612,18.0541 156.944,18.1043 "/>
  </g>
  <g id="_247078936">
   <polyline id="_247079080" class="dam-fil1 dam-str4" points="145.925,13.8833 145.909,13.3484 145.756,13.0832 "/>
   <polyline id="_247079152" class="dam-fil1 dam-str4" points="145.925,13.8833 146.186,13.4387 146.175,13.195 "/>
   <polyline id="_247079224" class="dam-fil1 dam-str4" points="145.925,13.8833 146.402,13.6165 146.733,13.6667 "/>
  </g>
  <g id="_247079368">
   <polyline id="_247079512" class="dam-fil1 dam-str4" points="138.758,10.8595 138.742,10.3246 138.588,10.0594 "/>
   <polyline id="_247079584" class="dam-fil1 dam-str4" points="138.758,10.8595 139.019,10.4149 139.007,10.1712 "/>
   <polyline id="_247079656" class="dam-fil1 dam-str4" points="138.758,10.8595 139.234,10.5927 139.566,10.6429 "/>
  </g>
  <g id="_247079800">
   <polyline id="_247079944" class="dam-fil1 dam-str4" points="130.873,7.4889 130.857,6.954 130.703,6.6888 "/>
   <polyline id="_247080016" class="dam-fil1 dam-str4" points="130.873,7.4889 131.134,7.0443 131.122,6.8006 "/>
   <polyline id="_247080088" class="dam-fil1 dam-str4" points="130.873,7.4889 131.349,7.2221 131.681,7.2723 "/>
  </g>
 </g>
</svg>
