<svg id="Layer_1" data-name="Layer 1" xmlns="http://www.w3.org/2000/svg" viewBox="0 0 1999 297.65"><defs><style>.cls-1{fill:#39f;}</style></defs><title>river</title><path class="cls-1" d="M2799.5,465c-3.46-.42-6.92-1-10.4-1.24-6.26-.44-9.06,1-11.25,6.79-5,13.12-11.55,25.69-9.27,40.79,1.24,8.23-2.52,15.84-10.6,19.91-6.79,3.42-13.82,6.35-21.4,9.79-4.11,0-4.73-1.63-5.9-2.17-6-2.77-9.53-7.76-12.71-13.05-5.06-8.42-10.35-16.77-14.53-25.63-2.3-4.88-2.31-10.8-3.82-16.12-.91-3.21-2.11-6.72-4.26-9.13a289.91,289.91,0,0,0-20.4-21.11c-14.44-13.26-32.38-18.55-50.12-3.25-1.71,1.47-9.87,8.17-10.87,8.84-9.27,6.19-18.36,12.67-27.82,18.54-10.58,6.56-20.72,6.25-30.83-2.07-8.7-7.16-17.84-15-29.6-15.56-9.63-.47-19.47,1.24-29.08,2.86-10.88,1.84-21.7,3.94-32.67,1.74-11.51-2.31-31.71-15.59-31.3-25.84.66-16.6-13.08-27.91-28.77-23-9.06,2.82-17.86,6.49-27.67,5.49-11.9-1.21-23.85-2.07-35.71-3.58-4.15-.53-7.21.46-8.74,3.95-5.06,11.54-14.12,18.63-25.1,23.88-9.93,4.75-12.72,15-17.49,23.58a47,47,0,0,0-3.85,9.2c-4.42,14.71-14.82,21.65-29.46,23.95-13,2-25.94,4.23-38.65,7.43-6.77,1.7-13.21,5.25-19.37,8.73-7.67,4.33-15,9.29-22.22,14.32-1.54,1.07-11.1,6.28-12.74,7.3q-15.28,9.49-30.53,19c-15,9.41-30.48,9.66-46.06,1.7a155.49,155.49,0,0,1-17.49-10.62c-9.54-6.59-19.53-12.08-30.86-14.87-12.13-3-21.42-9.66-27.24-20.9a55.82,55.82,0,0,0-3.31-5c-2.7-4.06-6.75-5.57-10.83-3.45-6.12,3.17-11.82,7.19-17.56,11-12.49,8.38-29,28.39-32.87,33.2-9.7,12.11-18.41,24.73-22.91,40-5.4,18.35-20.25,25.85-37.37,30a32.82,32.82,0,0,1-9.4,1c-8-.44-14.78,1.31-20.61,7.61-7,7.59-18.83,6.53-22.57-4.21-.63-1.82-3.38-3.58-5.47-4.09-6.44-1.58-13-2.62-19.58-3.72a53.63,53.63,0,0,1-26.52-12c-1.38-1.18-3.45-1.56-5.2-2.31-.5,1.83-1.54,3.7-1.41,5.49.75,10.73-.35,20.87-7,29.9-8.51,11.46-20,17.47-33.75,20.5-8.53,1.88-17.23,4-25.11,7.69-15.38,7.12-30.2,7.23-45.06-.64-7.19-3.81-14.23-7.93-21.22-12.1-8.54-5.08-17.74-5.69-27.34-4.88-13.25,1.12-26.52,2.4-39.8,2.67-13.48.27-23.82,5.31-32.38,15.77a84.07,84.07,0,0,1-17.92,16.43c-14.16,9.5-28.77,6.13-37.94-8.17-7.79-12.14-12.57-25.26-11.62-40.07.39-6.17-.21-6.67-6.12-4.88-11.88,3.6-24,3.38-36.16,3-9.73-.31-17.53,2.64-23.14,11-2.21,3.29-5.26,6-7.83,9.06-9.56,11.4-21.66,13.09-35.28,9.52-6.43-1.69-12.89-3.68-19.45-4.31a164.58,164.58,0,0,0-23.36-.07,74.8,74.8,0,0,1-38.94-8.83c-5.25-2.74-11.13-4.3-16.76-6.31-10.8-3.85-21.57-7.78-32.45-11.4-5.36-1.78-10.9-3-16.38-4.41-7.56-1.92-15.12-2.21-22.6.39-13.57,4.72-26.69,3.56-39.78-2.18a73.76,73.76,0,0,0-17.15-5.1c-10.76-1.82-18.72-7.25-24.59-16.28a59.12,59.12,0,0,0-7.36-9.42c-7-7.09-15.82-10.27-25.69-10.5-11.86-.27-23-2.34-32.93-9.71-2.54-1.89-7-2.35-10.34-1.81-13.79,2.25-25.4-.11-33.72-12.56-3.46-5.19-18.5-8-23.94-3.77-10.31,8-22.32,6.55-33.87,7.62-3.4.31-7-1.86-10.54-2.47-2.65-.45-6-1.28-8-.13-10.22,5.88-19.63,3.22-29.59-.88-29.68-12.22-59.53-24-89.37-35.84-3.12-1.24-6.68-1.39-10-2q0-32,0-64c12.75,1.54,21.35,10.2,30.58,17.81,12.72,10.49,25.52,20.88,38.31,31.29.61.5,8.32,6.34,10.19,7.76,11,8.39,23.15,14.47,37.08,16.18a36.44,36.44,0,0,0,10.93-.05c9.48-1.76,18.9-2.17,28.12.77,8.6,2.75,16.5,1.13,24-3,9.34-5.12,18.55-10.49,27.67-16,13.95-8.43,28.27-11,43.8-4.41,11.17,4.72,22.92,4.68,34.87,3.44,13.6-1.41,26.95-1.32,37.58,9.89,6,6.35,13.81,4.55,20.48,1.25,7.7-3.82,14.81-8.87,22.08-13.53,3.5-2.24,6.72-4.92,10.21-7.18,8.39-5.43,17.38-7.34,27.15-4.33,6.52,2,13.05,4,19.61,5.84s9.9,6.11,11,12.76c1.4,8.84,2.45,10.32,11.25,8.67a117.33,117.33,0,0,0,26.32-8.6c9.49-4.29,17.89-11,28.68-12.44a67.67,67.67,0,0,1,8.51.32c13.79,3.17,24,12,33.91,21.23,6.93,6.49,14.42,11.5,23.74,14.09,4.83,1.34,9.32,4.31,13.58,7.13,5.41,3.58,10.29,7.94,15.64,11.61,9.05,6.21,14.74,14.72,18.26,24.93,1.95,5.66,4.14,11.24,6.16,16.88,1.2,3.36,3.43,4.45,7,4.05a80.51,80.51,0,0,1,13.91-.75c6.88.42,12-2.45,16-7.54,6.35-8.05,15.94-15.7,28.48-17.2,3.93.56,7.74.42,11,1.73,3.69,1.49,8.06,3.51,10,6.63,5.61,8.87,7.51,18.77,3.8,29.09-1.41,3.91-3.3,7.66-4.61,11.6-2,6,1.8,10.27,7.8,8.51a74.87,74.87,0,0,0,14.63-6.22,45.13,45.13,0,0,1,24.34-5.95c11.64.52,23.32.17,35,.15,1.12,0,11,.13,12.4.11,17-.26,34.12-.83,50.43,4.74,8.25,2.81,15.87,7.48,23.74,11.38a25.69,25.69,0,0,1,3.7,2.56c8.85,6.56,17.94,7.81,27.92,2.19,13.63-7.68,27.49-15,41.3-22.33,3.66-2,4.33-4.55,2.8-8.25-1.78-4.3-3.37-8.68-4.87-13.08a11.18,11.18,0,0,1,2.92-12c9.06-9.08,19.79-14.38,32.85-11.08,4.24,1.07,7.83,4.62,11.8,6.89,2.34,1.33,16.71,9,23.27,7.67,10.18-2.08,19,.4,27.85,4.87,2.11,1.07,4.82,1.17,7.28,1.32,7.3.43,14.63.45,21.91,1a12.64,12.64,0,0,0,12.31-6.07c10.21-15.4,20.65-30.66,30.2-46.46,4.49-7.42,9.19-14.24,16.42-19.08,6.84-4.59,11.31-10.67,14.62-18.39,2.21-5.15,6.79-9.86,11.4-13.28,7-5.22,15-9.19,22.64-13.64a32.88,32.88,0,0,1,4.5-2.17c7.6-3,17,3.66,24.24,1.64,1.76-.49,3.42-1.33,5.17-1.86,6.36-1.93,12.43-1.5,16.94,3.82,3.17,3.74,6.67,4.37,11.07,3.33a45.13,45.13,0,0,1,6.9-.86c5.07-.39,9.33,1.31,11.84,5.83a13.69,13.69,0,0,1-.58,15.12c-1.18,1.76-2.51,3.42-4.59,6.22,15.77,5.92,51.66,20.57,54.11,20.66a88.08,88.08,0,0,0,14.75-.23,7.86,7.86,0,0,0,7-6.85c1.75-10.17,7.74-17.59,16-23.21,10.07-6.85,20.3-13.52,33.17-13.76a18.19,18.19,0,0,0,2.91-.67c10.06-1.93,19-8,29.84-7.37,10.1.59,34.77.5,34.77.5,7.34-1.48,13.27-4.15,18.23-8.8a5.24,5.24,0,0,0,1.29-3.59c-.42-17,9.05-28.62,20.87-39.09,7.33-6.5,14.6-13.08,21.65-19.89,6.68-6.45,13.51-12.52,23.26-13.49,3.07-.31,27.53.2,34-.92,11.11-1.94,22.11-4.54,33.17-6.77,21.87-4.42,46.56,8.34,55.5,28.54,2,4.41,4,8.81,6.32,13,3,5.38,7.88,7.61,13.93,6.48s12-2.65,18-4c2.65-.58,4.38-2.36,7.2-2.36,10.61.83,19.89,5.6,31,4.13a34.27,34.27,0,0,1,30.59,11.6c.33.37.67.75,1,1.13,9.31,10.87,10.14,6.74,17.18.73,15.64-13.34,33.18-23.92,51.87-32.5a37.32,37.32,0,0,1,10.12-2.47c10.92-1.6,20.86,1.23,29.74,7.57,10,7.15,19.87,14.55,29.81,21.82.75.55,7.65,7.55,9.32,9.35,7.59,8.17,11.15,18.43,15.71,28.23a201.79,201.79,0,0,0,10.72,20.26c2.78,4.54,5.62,4.2,7-.91,1.63-5.86,2-12.07,3.05-18.11a73.62,73.62,0,0,1,14.27-32.61c4-5.13,9.48-7,15.87-6.9,6.81.09,13.62-.1,20.43-.17ZM1252.8,615c1.89,2.68,4.67,5.75,6.44,9.33,4.25,8.62,11.13,9.47,19.34,7.5a33.38,33.38,0,0,1,22.84,2.31c2.85,1.36,5.8,2.53,8.75,3.66a57.22,57.22,0,0,0,33.35,2.17c9.29-2,15.61-8.63,22.35-14.52,9.66-8.45,19.66-13.89,32.5-6.22,1.5.9,4.36-.47,6.59-.78-.72-2.15-.83-4.93-2.28-6.35-5.48-5.42-12.4-8.39-19.95-9.54-12.31-1.88-22.29-7.27-29.44-17.73-2.14-3.14-4.6-6.36-7.64-8.51-4-2.8-8.48-5.91-13.06-6.51-8-1-15.74-2.18-22.87-6.24a18.19,18.19,0,0,0-19,0c-6.35,3.63-12.39,7.82-18.81,11.32-8.11,4.43-12.34,11-13.68,20.12C1257.27,601.35,1254.89,607.49,1252.8,615Zm-37.45-55.25,0-.32a44.78,44.78,0,0,0,6,0c6.61-.9,12.28-3.52,14.79-10.2,1.37-3.63,1.74-7.18-2-10.34a42.47,42.47,0,0,1-9.43-10.46,23.75,23.75,0,0,0-31.48-9.33,135,135,0,0,1-15,6.73c-17.86,6.62-20.5,12.35-13.5,30.19,3.32,8.45,7.25,10.45,15.42,6.6a45.3,45.3,0,0,1,23.78-4.07C1207.76,558.85,1211.55,559.35,1215.34,559.78ZM1026.57,536.7c-3,0-6.14-.77-8.59.19-3.3,1.3-7.69,3.39-8.63,6.16s1.14,7.26,3.21,10c4.47,6,11.53,7.54,18.58,8.34,10.89,1.24,21.83,1.94,31.8,7.39,2.47,1.35,5.76,1.48,8.7,1.63,15.59.82,30.59,3.35,42,15.26,6.94,7.22,15.3,9.78,24.89,8.68,2.16-.25,5.44-1.56,5.91-3.09.64-2.06-.34-5.23-1.69-7.19-3.41-5-9.17-5.19-14.49-6.63-4.93-1.33-9.51-4.13-14.11-6.54-4.07-2.14-7.71-5.35-12-6.82-5.45-1.86-11.3-2.65-17-3.53-13.79-2.12-27.26-4.86-37.42-15.63C1042,538.81,1035.17,535.12,1026.57,536.7Z" transform="translate(-800.5 -391.28)"/></svg>